<svg width="40" height="54" viewBox="0 0 40 54" fill="none" xmlns="http://www.w3.org/2000/svg">
<path fill-rule="evenodd" clip-rule="evenodd" d="M32.4433 20.0127C33.6695 19.5732 34.7615 18.8657 35.6503 17.9692C37.1087 16.4971 38.0083 14.4976 38.0083 12.3135C38.0083 11.0918 37.729 9.93164 37.2284 8.89453H37.232C37.0071 8.42871 36.7386 7.98486 36.4303 7.57178C36.2706 10.2964 35.7192 12.8804 34.8558 15.2314C34.2173 16.9673 33.4011 18.5757 32.4433 20.0127ZM20.4607 40.0825L21.4874 43.5674L24.542 43.6729L22.1223 45.9316L22.982 49.4824L20.4607 47.3906L17.9394 49.4824L18.7992 45.9316L16.3795 43.6729L19.4341 43.5674L20.4607 40.0825ZM7.48413 35.5693H33.441V54H7.48413V35.5693ZM22.0316 26.3979V29.2764H22.2093V31.2891H17.7036V29.2764H17.8814V26.3804C15.1351 25.8662 12.6247 24.3633 10.575 22.166L10.3319 22.979C7.50589 22.9219 4.9483 21.7397 3.0945 19.8677C1.18266 17.9429 0 15.271 0 12.3091C0 10.6392 0.380918 9.05713 1.06294 7.63769L1.05931 7.6333C1.74859 6.19629 2.74986 4.93945 3.97243 3.95508L5.0789 3.06299H3.79829V0H35.9441V3.06299H34.9211L36.0276 3.95508C37.2465 4.93945 38.2441 6.19629 38.9371 7.6333H38.9407C39.6191 9.04834 40 10.6304 40 12.3091C40 15.271 38.8173 17.9385 36.9019 19.8721C35.0481 21.7441 32.4905 22.9263 29.6644 22.9834L29.4214 22.166C27.3499 24.3896 24.8104 25.9014 22.0316 26.3979ZM15.2948 33.3062H24.6218V35.3188H15.2948V33.3062ZM16.7169 31.2891H23.1997V33.3018H16.7169V31.2891ZM4.34972 17.9692C5.23853 18.8701 6.33412 19.5732 7.56031 20.0171C6.60258 18.5801 5.78632 16.9717 5.1442 15.2271C4.28079 12.8804 3.72937 10.292 3.56974 7.56738C3.26864 7.97168 3.00018 8.41992 2.77163 8.89014H2.768C2.271 9.92285 1.99166 11.0874 1.99166 12.3091C1.99166 14.4976 2.89135 16.4927 4.34972 17.9692Z" fill="url(#paint0_radial_165_318)"/>
<defs>
<radialGradient id="paint0_radial_165_318" cx="0" cy="0" r="1" gradientUnits="userSpaceOnUse" gradientTransform="translate(20 27) rotate(90) scale(27 20)">
<stop stop-color="#FF4601"/>
<stop offset="1" stop-color="#843D4C"/>
</radialGradient>
</defs>
</svg>
