<svg width="73" height="45" viewBox="0 0 73 45" fill="none" xmlns="http://www.w3.org/2000/svg">
<g filter="url(#filter0_d_165_287)">
<g clip-path="url(#clip0_165_287)">
<rect x="4" y="37" width="37" height="65" rx="18.5" transform="rotate(-90 4 37)" fill="white"/>
<path d="M209.046 20.8982C80.6637 102.542 70.2996 44.8501 81.9632 -13.0637C91.9838 -62.8192 95.6328 -115.191 95.2794 -165.945C94.467 -282.61 158.075 -496.479 612.801 -565.814C680.084 -576.073 704.722 -543.767 713.125 -511.719C722.302 -476.717 703.24 -442.439 679.1 -415.483C593.705 -320.125 375.452 -84.9268 209.046 20.8982Z" fill="url(#paint0_radial_165_287)"/>
<path d="M30.8453 93.5879C-38.6584 220.681 -89.665 -297.397 25.2958 -137.448C140.257 22.5009 109.613 -172.791 151.405 -140.477C167.55 -127.994 175.756 -106.645 179.039 -81.8174C187.093 -20.9106 60.3235 39.6849 30.8453 93.5879Z" fill="url(#paint1_linear_165_287)"/>
<g clip-path="url(#clip1_165_287)">
<path fill-rule="evenodd" clip-rule="evenodd" d="M50.1343 7.97626C41.4591 7.97626 39.6404 3.94794 39.6404 0.532822C39.6404 0.3785 39.7007 0.230501 39.8081 0.12138C39.9154 0.0122585 40.061 -0.0490456 40.2129 -0.0490456H42.7758C42.912 -0.048563 43.0436 0.00127602 43.1469 0.0915203C43.2502 0.181763 43.3185 0.306494 43.3395 0.443304C43.727 3.09752 44.8763 4.43582 50.1255 4.43582C54.3046 4.43582 56.0793 3.46455 56.0793 1.22659C56.0793 -0.0714264 55.5729 -1.01137 49.0818 -1.67828C43.6521 -2.22434 40.2745 -3.43731 40.2745 -7.85503C40.2745 -11.9192 43.6477 -14.3406 49.302 -14.3406C55.6521 -14.3406 58.7963 -12.1027 59.1927 -7.28659C59.1991 -7.20519 59.1886 -7.12333 59.1621 -7.04626C59.1356 -6.96918 59.0935 -6.89859 59.0385 -6.839C58.9819 -6.77842 58.9135 -6.73044 58.8377 -6.69808C58.7619 -6.66573 58.6804 -6.6497 58.5982 -6.65101H56.0661C55.9374 -6.65071 55.8124 -6.69482 55.7116 -6.77614C55.6108 -6.85746 55.5401 -6.97115 55.5112 -7.0986C54.8903 -9.8871 53.393 -10.7823 49.3152 -10.7823C44.753 -10.7912 44.2202 -9.17543 44.2202 -7.96693C44.2202 -6.49883 44.8455 -6.06915 51.0018 -5.2411C57.1582 -4.41306 59.9941 -3.24932 59.9941 1.09679C59.9941 5.4429 56.3919 8.00312 50.1079 8.00312L50.1343 7.97626ZM44.0088 24C43.2793 24.0005 42.5625 23.806 41.9303 23.4361L35.3248 19.4525C34.334 18.8885 34.8184 18.6916 35.1442 18.5573C36.1948 18.2218 37.2005 17.7558 38.1387 17.1698C38.2171 17.1324 38.3036 17.1161 38.3899 17.1223C38.4763 17.1286 38.5596 17.1573 38.6319 17.2056L43.7182 20.2716C43.8133 20.3222 43.9191 20.3486 44.0264 20.3486C44.1338 20.3486 44.2396 20.3222 44.3347 20.2716L64.1512 8.63422C64.244 8.57769 64.3208 8.49767 64.374 8.40195C64.4273 8.30624 64.4552 8.19812 64.4551 8.08816V-15.1418C64.4554 -15.2536 64.4272 -15.3635 64.3731 -15.4608C64.3191 -15.5581 64.2411 -15.6394 64.1468 -15.6968L44.3303 -27.3342C44.2374 -27.3892 44.1318 -27.4183 44.0242 -27.4183C43.9167 -27.4183 43.8111 -27.3892 43.7182 -27.3342L23.9017 -15.6968C23.8066 -15.641 23.7276 -15.5608 23.6727 -15.4641C23.6179 -15.3675 23.589 -15.2579 23.589 -15.1463V8.12844C23.5887 8.23835 23.6171 8.34636 23.6713 8.44149C23.7254 8.53662 23.8034 8.61547 23.8973 8.67003L29.327 11.8569C32.2642 13.3384 34.0918 11.5704 34.0918 9.79796V-13.159C34.0912 -13.2359 34.1057 -13.3123 34.1345 -13.3834C34.1634 -13.4546 34.2059 -13.5192 34.2597 -13.5734C34.3134 -13.6276 34.3773 -13.6703 34.4475 -13.6991C34.5177 -13.7279 34.5929 -13.7421 34.6686 -13.7409H37.1743C37.2497 -13.7415 37.3244 -13.7268 37.3941 -13.6978C37.4638 -13.6687 37.5272 -13.6259 37.5804 -13.5718C37.6337 -13.5176 37.6758 -13.4532 37.7044 -13.3824C37.733 -13.3115 37.7474 -13.2356 37.7468 -13.159V9.80691C37.7468 13.8039 35.6022 16.0732 31.8767 16.0732C30.7317 16.0732 29.8246 16.0732 27.3057 14.811L22.0785 11.7853C21.4464 11.4107 20.9219 10.8743 20.5572 10.2296C20.1926 9.58483 20.0004 8.85423 20 8.11054L20 -15.1642C19.9987 -15.9082 20.19 -16.6396 20.5549 -17.2846C20.9198 -17.9297 21.4452 -18.4657 22.0785 -18.8389L41.9259 -30.4763C42.5655 -30.8308 43.2824 -31.0166 44.011 -31.0166C44.7396 -31.0166 45.4565 -30.8308 46.0962 -30.4763L65.9127 -18.8389C66.5502 -18.4643 67.0791 -17.925 67.4456 -17.2758C67.8122 -16.6265 68.0034 -15.8904 68 -15.1418V8.13292C67.9983 8.87634 67.8056 9.60642 67.441 10.2509C67.0765 10.8954 66.5527 11.432 65.9215 11.8076L46.105 23.445C45.4697 23.8155 44.75 24.0099 44.0176 24.009L44.0088 24Z" fill="black"/>
</g>
<path d="M30.8453 93.5879C-38.6584 220.681 -89.665 -297.397 25.2958 -137.448C140.257 22.5009 109.613 -172.791 151.405 -140.477C167.55 -127.994 175.756 -106.645 179.039 -81.8174C187.093 -20.9106 60.3235 39.6849 30.8453 93.5879Z" fill="url(#paint2_linear_165_287)"/>
<path d="M14.105 11.7188L16.4904 17.9376H24.2099L17.9647 21.7811L20.3502 27.9999L14.105 24.1564L7.85976 27.9999L10.2452 21.7811L4 17.9376H11.7195L14.105 11.7188Z" fill="url(#paint3_radial_165_287)"/>
</g>
</g>
<defs>
<filter id="filter0_d_165_287" x="0" y="0" width="73" height="45" filterUnits="userSpaceOnUse" color-interpolation-filters="sRGB">
<feFlood flood-opacity="0" result="BackgroundImageFix"/>
<feColorMatrix in="SourceAlpha" type="matrix" values="0 0 0 0 0 0 0 0 0 0 0 0 0 0 0 0 0 0 127 0" result="hardAlpha"/>
<feOffset dy="4"/>
<feGaussianBlur stdDeviation="2"/>
<feComposite in2="hardAlpha" operator="out"/>
<feColorMatrix type="matrix" values="0 0 0 0 0 0 0 0 0 0 0 0 0 0 0 0 0 0 0.25 0"/>
<feBlend mode="normal" in2="BackgroundImageFix" result="effect1_dropShadow_165_287"/>
<feBlend mode="normal" in="SourceGraphic" in2="effect1_dropShadow_165_287" result="shape"/>
</filter>
<radialGradient id="paint0_radial_165_287" cx="0" cy="0" r="1" gradientUnits="userSpaceOnUse" gradientTransform="translate(23.027 189.479) rotate(-116.519) scale(129.413 606.141)">
<stop stop-color="#325379"/>
<stop offset="1" stop-color="#D9DFE6"/>
</radialGradient>
<linearGradient id="paint1_linear_165_287" x1="41.9384" y1="70.2328" x2="184.291" y2="-6.43921" gradientUnits="userSpaceOnUse">
<stop stop-color="#CFD7E0"/>
<stop offset="0.435415" stop-color="#5B7694"/>
<stop offset="1" stop-color="#8A9DB3" stop-opacity="0"/>
</linearGradient>
<linearGradient id="paint2_linear_165_287" x1="41.9384" y1="70.2328" x2="184.291" y2="-6.43921" gradientUnits="userSpaceOnUse">
<stop stop-color="#CFD7E0"/>
<stop offset="0.435415" stop-color="#5B7694"/>
<stop offset="1" stop-color="#8A9DB3" stop-opacity="0"/>
</linearGradient>
<radialGradient id="paint3_radial_165_287" cx="0" cy="0" r="1" gradientUnits="userSpaceOnUse" gradientTransform="translate(14.1055 20.7188) rotate(90) scale(9 10.625)">
<stop stop-color="#87404F"/>
<stop offset="1" stop-color="#DB8F91"/>
</radialGradient>
<clipPath id="clip0_165_287">
<rect x="4" y="37" width="37" height="65" rx="18.5" transform="rotate(-90 4 37)" fill="white"/>
</clipPath>
<clipPath id="clip1_165_287">
<rect width="48" height="55" fill="white" transform="translate(20 -31)"/>
</clipPath>
</defs>
</svg>
