<svg width="64" height="56" viewBox="0 0 64 56" fill="none" xmlns="http://www.w3.org/2000/svg">
<path d="M6.81685 40.5689C8.06561 41.1386 8.46979 42.3645 7.71571 43.3079C6.96164 44.2512 5.33886 44.5566 4.09011 43.9869C2.85343 43.4218 1.81582 42.6197 1.09794 41.6627C0.398153 40.733 0 39.662 0 38.5364V19.6054C0 17.8508 0.94712 16.2603 2.47337 15.1074C3.99962 13.9544 6.10501 13.2389 8.42756 13.2389H27.9732L44.6172 0.587821C45.6428 -0.191476 47.3138 -0.196034 48.3454 0.578706C48.8642 0.966076 49.1236 1.48105 49.1236 1.99147H49.1296V12.3593C49.1296 13.4622 47.9472 14.36 46.4813 14.36C45.0214 14.36 43.833 13.4667 43.833 12.3593V6.83131L31.068 16.5383C30.5854 16.9667 29.8614 17.2402 29.0591 17.2402H8.42756C7.5649 17.2402 6.78066 17.509 6.21359 17.9374C5.64653 18.3658 5.2906 18.9583 5.2906 19.61V38.5409C5.2906 38.9693 5.43539 39.3613 5.68876 39.6985C5.95419 40.054 6.34631 40.3547 6.81685 40.5689ZM8.57234 54.1269C7.54077 54.9062 5.8637 54.9062 4.83212 54.1269C3.80055 53.3476 3.80055 52.0807 4.83212 51.3014L59.4816 10.0169C60.5132 9.23756 62.1902 9.23756 63.2218 10.0169C64.2534 10.7962 64.2534 12.0631 63.2218 12.8424L8.57234 54.1269ZM43.839 32.9537C43.839 31.8508 45.0214 30.9531 46.4873 30.9531C47.9472 30.9531 49.1356 31.8463 49.1356 32.9537V53.9993C49.1356 55.1021 47.9532 55.9999 46.4873 55.9999C45.7755 55.9999 45.136 55.7903 44.6594 55.4485L30.8689 46.9628C29.7408 46.2701 29.5658 45.0123 30.4888 44.1601C31.4058 43.3079 33.0708 43.1757 34.1989 43.873L43.845 49.8066V32.9537H43.839Z" fill="url(#paint0_radial_165_324)"/>
<defs>
<radialGradient id="paint0_radial_165_324" cx="0" cy="0" r="1" gradientUnits="userSpaceOnUse" gradientTransform="translate(31.9977 28.0002) rotate(90) scale(27.9997 31.9977)">
<stop stop-color="#FF4601"/>
<stop offset="1" stop-color="#903D45"/>
</radialGradient>
</defs>
</svg>
