<svg width="66" height="50" viewBox="0 0 66 50" fill="none" xmlns="http://www.w3.org/2000/svg">
<path d="M42.0933 5.28255C41.1211 5.28255 40.3262 4.48528 40.3262 3.49819C40.3262 2.51652 41.1157 1.71383 42.0933 1.71383C48.6943 1.71383 54.6724 4.41478 58.9961 8.78619C63.3252 13.1576 66 19.1886 66 25.8542C66 32.5198 63.3252 38.5562 58.9961 42.9222C54.667 47.2936 48.6943 49.9946 42.0933 49.9946C41.1211 49.9946 40.3262 49.1973 40.3262 48.2102C40.3262 47.2231 41.1157 46.4258 42.0933 46.4258C47.7222 46.4258 52.814 44.1208 56.5039 40.4002C60.1938 36.6742 62.4712 31.5327 62.4712 25.8488C62.4712 20.1649 60.1885 15.0233 56.5039 11.2973C52.814 7.58215 47.7168 5.28255 42.0933 5.28255ZM5.62354 11.8017H18.6592L29.7559 0.526069C30.4434 -0.168149 31.5552 -0.173573 32.2427 0.520646C32.5918 0.862331 32.7637 1.31791 32.7637 1.77892H32.769V48.1451C32.769 49.1268 31.9795 49.9295 31.002 49.9295C30.5078 49.9295 30.062 49.7234 29.7397 49.3925L18.7505 40.0314H5.62354C4.07666 40.0314 2.66943 39.3915 1.6543 38.3664C0.633789 37.3413 0 35.9204 0 34.3584V17.4802C0 15.9182 0.633789 14.4972 1.64893 13.4722C2.66943 12.4417 4.07666 11.8017 5.62354 11.8017ZM19.3843 15.365H5.62354C5.04883 15.365 4.52783 15.6036 4.14648 15.9887C3.76514 16.3738 3.52881 16.8999 3.52881 17.4802V34.3584C3.52881 34.9387 3.76514 35.4648 4.14648 35.8499C4.52783 36.2349 5.04883 36.4736 5.62354 36.4736H19.3843V36.4844C19.7817 36.4844 20.1846 36.62 20.5122 36.902L29.2402 44.3269V6.09066L20.7271 14.7413C20.3994 15.1264 19.9214 15.365 19.3843 15.365ZM41.2017 15.468C40.396 15.468 39.7407 14.8064 39.7407 13.9928C39.7407 13.1793 40.396 12.5176 41.2017 12.5176C44.9507 12.5176 48.3452 14.0525 50.7998 16.5311C53.2544 19.0096 54.7744 22.4373 54.7744 26.223C54.7744 30.0087 53.2544 33.4364 50.7998 35.9149C48.3452 38.3935 44.9507 39.9284 41.2017 39.9284C40.396 39.9284 39.7407 39.2667 39.7407 38.4532C39.7407 37.6396 40.396 36.978 41.2017 36.978C44.145 36.978 46.8091 35.7739 48.7373 33.8269C50.6655 31.8798 51.8579 29.1897 51.8579 26.2176C51.8579 23.2455 50.6655 20.5554 48.7373 18.6083C46.8037 16.6721 44.1396 15.468 41.2017 15.468Z" fill="url(#paint0_radial_165_321)"/>
<defs>
<radialGradient id="paint0_radial_165_321" cx="0" cy="0" r="1" gradientUnits="userSpaceOnUse" gradientTransform="translate(33 24.9986) rotate(90) scale(24.9959 33)">
<stop stop-color="#F94504"/>
<stop offset="1" stop-color="#833D4D"/>
</radialGradient>
</defs>
</svg>
