<svg width="1755" height="1080" viewBox="0 0 1755 1080" fill="none" xmlns="http://www.w3.org/2000/svg">
<g id="Component 18">
<path id="Rectangle 21" d="M162.856 54.9804C165.15 53.8017 167.665 53.1553 170.241 53.2628C252.288 56.685 366.079 173.813 377.067 52.4345C385.3 -38.509 346.546 22.5967 325.634 60.9419C317.573 75.722 302.321 85.392 285.486 85.4521L170.385 85.8633C153.204 85.9247 147.574 62.8336 162.856 54.9804V54.9804Z" fill="url(#paint0_linear_174_177)"/>
<path id="Rectangle 12" d="M1176 736C1021.52 735.999 929.148 542.335 897.434 461.857C888.523 439.247 877.542 418.006 863.076 398.477C758.688 257.549 349.875 -330.638 1177 152C1288.87 217.276 1372.53 317.69 1420.78 386.112C1453.21 432.102 1458.07 491.242 1431.01 540.588C1386.42 621.91 1301.5 736.001 1176 736Z" fill="url(#paint1_radial_174_177)"/>
<path id="Rectangle 13" d="M1195.72 640.946C1182.39 1155.8 84.1897 -206.699 765.264 -4.52518C1446.34 197.649 993.009 -290.809 1194.61 -290.851C1406.76 -290.896 1532.95 26.0525 1589.48 215.77C1605.73 270.296 1545.67 318.334 1489.56 308.917C1366.85 288.325 1203.98 321.926 1195.72 640.946Z" fill="url(#paint2_linear_174_177)"/>
<path id="Rectangle 21_2" d="M302.011 1463.75C79.0678 1936.04 -384.957 224.821 165.693 689.625C716.344 1154.43 494.548 516.685 682.034 598.701C880.096 685.344 866.962 1033.15 841.753 1231.82C834.6 1288.2 760.428 1307.96 713.044 1276.59C607.456 1206.67 441.035 1169.24 302.011 1463.75Z" fill="url(#paint3_linear_174_177)"/>
<g id="node-js-black 1" clip-path="url(#clip0_174_177)">
<path id="Vector" fill-rule="evenodd" clip-rule="evenodd" d="M922.134 574.976C913.459 574.976 911.64 570.948 911.64 567.533C911.64 567.378 911.701 567.231 911.808 567.121C911.915 567.012 912.061 566.951 912.213 566.951H914.776C914.912 566.951 915.044 567.001 915.147 567.092C915.25 567.182 915.319 567.306 915.339 567.443C915.727 570.098 916.876 571.436 922.126 571.436C926.305 571.436 928.079 570.465 928.079 568.227C928.079 566.929 927.573 565.989 921.082 565.322C915.652 564.776 912.275 563.563 912.275 559.145C912.275 555.081 915.648 552.659 921.302 552.659C927.652 552.659 930.796 554.897 931.193 559.713C931.199 559.795 931.189 559.877 931.162 559.954C931.136 560.031 931.093 560.101 931.039 560.161C930.982 560.222 930.914 560.27 930.838 560.302C930.762 560.334 930.68 560.35 930.598 560.349H928.066C927.937 560.349 927.812 560.305 927.712 560.224C927.611 560.143 927.54 560.029 927.511 559.901C926.89 557.113 925.393 556.218 921.315 556.218C916.753 556.209 916.22 557.825 916.22 559.033C916.22 560.501 916.846 560.931 923.002 561.759C929.158 562.587 931.994 563.751 931.994 568.097C931.994 572.443 928.392 575.003 922.108 575.003L922.134 574.976ZM916.009 591C915.279 591 914.563 590.806 913.93 590.436L907.325 586.453C906.334 585.889 906.818 585.692 907.144 585.557C908.195 585.222 909.201 584.756 910.139 584.17C910.217 584.132 910.304 584.116 910.39 584.122C910.476 584.129 910.56 584.157 910.632 584.206L915.718 587.272C915.813 587.322 915.919 587.349 916.026 587.349C916.134 587.349 916.24 587.322 916.335 587.272L936.151 575.634C936.244 575.578 936.321 575.498 936.374 575.402C936.427 575.306 936.455 575.198 936.455 575.088V551.858C936.455 551.746 936.427 551.637 936.373 551.539C936.319 551.442 936.241 551.361 936.147 551.303L916.33 539.666C916.237 539.611 916.132 539.582 916.024 539.582C915.917 539.582 915.811 539.611 915.718 539.666L895.902 551.303C895.807 551.359 895.728 551.439 895.673 551.536C895.618 551.632 895.589 551.742 895.589 551.854V575.128C895.589 575.238 895.617 575.346 895.671 575.441C895.725 575.537 895.803 575.615 895.897 575.67L901.327 578.857C904.264 580.338 906.092 578.57 906.092 576.798V553.841C906.091 553.764 906.106 553.688 906.135 553.617C906.163 553.545 906.206 553.481 906.26 553.427C906.313 553.372 906.377 553.33 906.448 553.301C906.518 553.272 906.593 553.258 906.669 553.259H909.174C909.25 553.259 909.324 553.273 909.394 553.302C909.464 553.331 909.527 553.374 909.58 553.428C909.634 553.482 909.676 553.547 909.704 553.618C909.733 553.688 909.747 553.764 909.747 553.841V576.807C909.747 580.804 907.602 583.073 903.877 583.073C902.732 583.073 901.825 583.073 899.306 581.811L894.079 578.785C893.446 578.411 892.922 577.874 892.557 577.23C892.193 576.585 892 575.854 892 575.111L892 551.836C891.999 551.092 892.19 550.36 892.555 549.715C892.92 549.07 893.445 548.534 894.079 548.161L913.926 536.524C914.566 536.169 915.282 535.983 916.011 535.983C916.74 535.983 917.457 536.169 918.096 536.524L937.913 548.161C938.55 548.536 939.079 549.075 939.446 549.724C939.812 550.373 940.003 551.11 940 551.858V575.133C939.998 575.876 939.806 576.606 939.441 577.251C939.076 577.895 938.553 578.432 937.921 578.808L918.105 590.445C917.47 590.815 916.75 591.01 916.018 591.009V591.009L916.009 591Z" fill="url(#paint4_radial_174_177)"/>
</g>
<g id="sql-file 1" clip-path="url(#clip1_174_177)">
<g id="Group">
<path id="Vector_2" fill-rule="evenodd" clip-rule="evenodd" d="M1248.67 657.121H1278.5V648.801H1268.99C1268 648.801 1266.61 648.306 1265.95 647.701C1265.29 647.096 1264.89 646.004 1264.89 645.09V636.233H1240.75C1240.66 636.233 1240.6 636.271 1240.56 636.309C1240.49 636.352 1240.47 636.407 1240.47 636.487V681.534C1240.47 681.593 1240.51 681.67 1240.55 681.708C1240.59 681.767 1240.68 681.784 1240.74 681.784C1251.21 681.784 1267.45 681.784 1278.22 681.784C1278.3 681.784 1278.29 681.746 1278.34 681.708C1278.4 681.67 1278.49 681.589 1278.49 681.534V676.812H1248.67C1246.76 676.812 1245.19 675.373 1245.19 673.612V660.316C1245.19 658.56 1246.76 657.121 1248.67 657.121ZM1250.59 668.521L1253.87 668.331C1253.94 668.818 1254.08 669.19 1254.3 669.444C1254.65 669.859 1255.16 670.066 1255.82 670.066C1256.31 670.066 1256.69 669.96 1256.96 669.749C1257.22 669.537 1257.36 669.292 1257.36 669.008C1257.36 668.742 1257.23 668.505 1256.98 668.293C1256.73 668.081 1256.14 667.887 1255.22 667.696C1253.71 667.387 1252.64 666.968 1251.99 666.452C1251.34 665.936 1251.01 665.276 1251.01 664.472C1251.01 663.947 1251.18 663.448 1251.51 662.982C1251.84 662.512 1252.34 662.144 1253.01 661.878C1253.67 661.611 1254.59 661.476 1255.75 661.476C1257.17 661.476 1258.26 661.721 1259.01 662.208C1259.76 662.694 1260.2 663.473 1260.34 664.539L1257.1 664.717C1257.01 664.252 1256.83 663.913 1256.56 663.701C1256.28 663.49 1255.9 663.384 1255.41 663.384C1255.01 663.384 1254.71 663.465 1254.51 663.617C1254.3 663.773 1254.2 663.964 1254.2 664.188C1254.2 664.349 1254.29 664.497 1254.45 664.628C1254.61 664.764 1254.99 664.891 1255.6 665.005C1257.11 665.305 1258.18 665.606 1258.83 665.915C1259.49 666.219 1259.96 666.6 1260.25 667.053C1260.55 667.506 1260.7 668.009 1260.7 668.572C1260.7 669.228 1260.5 669.838 1260.11 670.392C1259.71 670.946 1259.16 671.369 1258.45 671.657C1257.74 671.945 1256.85 672.089 1255.77 672.089C1253.87 672.089 1252.56 671.75 1251.83 671.082C1251.1 670.413 1250.69 669.558 1250.59 668.521ZM1272.12 670.413C1272.54 670.688 1272.82 670.862 1272.96 670.934C1273.15 671.035 1273.42 671.158 1273.75 671.293L1272.8 673.071C1272.32 672.855 1271.84 672.601 1271.37 672.305C1270.9 672.008 1270.57 671.784 1270.38 671.636C1269.62 671.941 1268.67 672.093 1267.52 672.093C1265.83 672.093 1264.49 671.687 1263.51 670.874C1262.35 669.914 1261.77 668.564 1261.77 666.825C1261.77 665.136 1262.28 663.824 1263.29 662.885C1264.3 661.95 1265.71 661.48 1267.53 661.48C1269.38 661.48 1270.81 661.937 1271.82 662.851C1272.82 663.765 1273.33 665.073 1273.33 666.774C1273.33 668.293 1272.92 669.503 1272.12 670.413ZM1269.47 668.784C1269.75 668.331 1269.89 667.654 1269.89 666.757C1269.89 665.72 1269.67 664.984 1269.26 664.539C1268.83 664.099 1268.26 663.875 1267.52 663.875C1266.83 663.875 1266.28 664.104 1265.85 664.552C1265.43 665.005 1265.21 665.712 1265.21 666.672C1265.21 667.794 1265.42 668.581 1265.84 669.029C1266.26 669.482 1266.83 669.706 1267.55 669.706C1267.79 669.706 1268.01 669.685 1268.22 669.643C1267.93 669.385 1267.47 669.144 1266.84 668.915L1267.38 667.777C1267.69 667.827 1267.93 667.891 1268.09 667.967C1268.26 668.039 1268.6 668.238 1269.09 668.555C1269.21 668.632 1269.33 668.708 1269.47 668.784ZM1274.95 661.653H1278.4V669.393H1283.78V671.915H1274.95V661.653ZM1281.96 657.121H1286.52C1288.44 657.121 1290 658.564 1290 660.32V673.617C1290 675.373 1288.43 676.816 1286.52 676.816H1281.96V682.55C1281.96 683.231 1281.66 683.836 1281.18 684.285C1280.69 684.733 1280.03 685.004 1279.29 685.004C1265.76 685.004 1253.27 685.004 1239.67 685.004C1238.93 685.004 1238.27 684.733 1237.79 684.285C1237.3 683.836 1237 683.231 1237 682.55V635.476C1237 634.794 1237.3 634.189 1237.79 633.741C1238.27 633.292 1238.95 633.021 1239.67 633.021H1266.67C1266.73 633 1266.79 633 1266.86 633C1267.15 633 1267.45 633.118 1267.66 633.292H1267.7C1267.74 633.313 1267.77 633.33 1267.81 633.368L1281.6 646.216C1281.83 646.432 1282 646.724 1282 647.054C1282 647.151 1281.98 647.227 1281.96 647.329V657.121V657.121ZM1268.04 644.836V636.783L1277.89 645.966H1269.27C1268.93 645.966 1268.63 645.831 1268.4 645.636C1268.19 645.441 1268.04 645.149 1268.04 644.836Z" fill="url(#paint5_radial_174_177)"/>
</g>
</g>
<g id="expressjs 1" clip-path="url(#clip2_174_177)">
<path id="Vector_3" d="M1263 250.17C1261.11 250.68 1259.94 250.193 1258.89 248.521L1251.42 237.565L1250.34 236.048L1241.63 248.557C1240.63 250.062 1239.59 250.717 1237.73 250.184L1248.89 234.289L1238.5 219.93C1240.28 219.562 1241.52 219.749 1242.62 221.447L1250.36 232.539L1258.16 221.508C1259.16 220.003 1260.23 219.431 1262.03 219.985L1258 225.653L1252.54 233.194C1251.89 234.055 1251.98 234.645 1252.57 235.477L1263 250.17ZM1211.01 234.023L1211.93 229.259C1214.41 219.83 1224.6 215.912 1231.63 221.738C1235.73 225.165 1236.75 230.012 1236.55 235.441H1213.41C1213.06 245.214 1219.69 251.113 1228.14 248.103C1231.11 247.047 1232.86 244.583 1233.73 241.502C1234.17 239.958 1234.91 239.716 1236.28 240.158C1235.58 244.012 1234 247.231 1230.67 249.246C1225.69 252.263 1218.59 251.287 1214.85 247.095C1212.62 244.663 1211.71 241.581 1211.29 238.286C1211.23 237.741 1211.1 237.222 1211 236.7C1211.01 235.808 1211.01 234.917 1211.01 234.025V234.023V234.023ZM1213.45 233.368H1234.36C1234.23 226.301 1230.08 221.282 1224.41 221.239C1218.19 221.188 1213.72 226.088 1213.45 233.368H1213.45V233.368Z" fill="url(#paint6_radial_174_177)"/>
</g>
<g id="icons8-nodejs-144 1">
<path id="Vector_4" d="M1372.01 531.472L1365.16 535.94C1364.91 536.106 1364.75 536.416 1364.75 536.75V545.692C1364.75 546.026 1364.91 546.333 1365.16 546.501L1372.02 550.973C1372.27 551.139 1372.59 551.139 1372.84 550.973L1379.69 546.501C1379.95 546.333 1380.1 546.026 1380.1 545.692V536.75C1380.1 536.416 1379.95 536.108 1379.69 535.94L1372.84 531.472C1372.71 531.388 1372.57 531.346 1372.43 531.346C1372.28 531.346 1372.14 531.388 1372.01 531.472H1372.01ZM1407.25 539.521L1406.11 540.265C1406.07 540.293 1406.04 540.344 1406.04 540.4V541.891C1406.04 541.947 1406.07 541.998 1406.11 542.026L1407.25 542.772C1407.3 542.8 1407.35 542.8 1407.39 542.772L1408.53 542.026C1408.58 541.998 1408.6 541.947 1408.6 541.891V540.4C1408.6 540.344 1408.58 540.293 1408.53 540.265L1407.39 539.521C1407.37 539.506 1407.35 539.5 1407.32 539.5C1407.3 539.5 1407.28 539.506 1407.25 539.521Z" fill="#388E3C"/>
<path id="Vector_5" d="M1397.9 521.995L1394.57 519.801C1394.46 519.732 1394.33 519.734 1394.23 519.806C1394.13 519.878 1394.06 520.009 1394.06 520.15L1394.06 533.402L1390.99 531.396C1390.86 531.312 1390.71 531.271 1390.57 531.271C1390.43 531.271 1390.29 531.312 1390.16 531.396H1390.16L1383.31 535.864C1383.05 536.031 1382.89 536.34 1382.89 536.673V545.614C1382.89 545.948 1383.05 546.256 1383.31 546.424L1390.16 550.896C1390.42 551.062 1390.73 551.062 1390.99 550.896L1397.84 546.424C1398.09 546.258 1398.25 545.948 1398.25 545.614V522.693C1398.25 522.403 1398.11 522.137 1397.9 521.995ZM1393.87 543.546L1390.76 545.578C1390.65 545.654 1390.5 545.654 1390.39 545.578L1387.27 543.546C1387.15 543.47 1387.08 543.328 1387.08 543.177V539.112C1387.08 538.96 1387.15 538.82 1387.27 538.743L1390.38 536.712H1390.38C1390.44 536.674 1390.51 536.656 1390.57 536.656C1390.64 536.656 1390.7 536.676 1390.76 536.712L1393.87 538.743C1393.99 538.82 1394.06 538.962 1394.06 539.113V543.179C1394.06 543.328 1393.99 543.47 1393.87 543.546Z" fill="url(#paint7_linear_174_177)"/>
<path id="Vector_6" d="M1372.01 531.472L1364.75 545.692C1364.75 546.026 1364.91 546.333 1365.16 546.501L1372.02 550.973C1372.27 551.139 1372.59 551.139 1372.84 550.973L1380.1 536.75C1380.1 536.416 1379.95 536.108 1379.69 535.94L1372.84 531.472C1372.71 531.388 1372.57 531.346 1372.43 531.346C1372.28 531.346 1372.14 531.388 1372.01 531.472" fill="#2E7D32"/>
<path id="Vector_7" d="M1372.01 531.472L1365.16 535.94C1364.91 536.106 1364.75 536.416 1364.75 536.75L1372.01 550.973C1372.27 551.139 1372.59 551.139 1372.84 550.973L1379.69 546.501C1379.95 546.333 1380.1 546.026 1380.1 545.692L1372.84 531.472C1372.71 531.388 1372.57 531.346 1372.43 531.346C1372.28 531.346 1372.14 531.388 1372.01 531.472" fill="#4CAF50"/>
<path id="Vector_8" d="M1414.59 535.864L1407.74 531.396C1407.61 531.312 1407.47 531.271 1407.32 531.271C1407.18 531.271 1407.04 531.312 1406.91 531.396H1406.91L1400.06 535.864C1399.8 536.031 1399.65 536.347 1399.65 536.692V545.598C1399.65 545.942 1399.8 546.259 1400.06 546.426L1406.91 550.897C1407.17 551.065 1407.48 551.065 1407.74 550.897L1410.9 548.835C1411.19 548.646 1411.19 548.157 1410.89 547.969L1404.02 543.547C1403.91 543.47 1403.83 543.326 1403.83 543.172V539.113C1403.83 538.962 1403.9 538.822 1404.01 538.749L1407.13 536.715H1407.13C1407.19 536.677 1407.26 536.659 1407.32 536.659C1407.39 536.659 1407.45 536.679 1407.51 536.715L1410.63 538.751C1410.74 538.823 1410.81 538.963 1410.81 539.115V542.426C1410.81 542.568 1410.88 542.699 1410.98 542.77C1411.08 542.839 1411.21 542.839 1411.32 542.769L1414.66 540.476C1414.87 540.334 1415 540.073 1415 539.79V536.695C1415 536.348 1414.84 536.031 1414.59 535.864ZM1362.94 535.864L1356.09 531.396C1355.96 531.312 1355.82 531.271 1355.68 531.271C1355.53 531.271 1355.39 531.312 1355.26 531.396H1355.26L1348.41 535.864C1348.16 536.031 1348 536.347 1348 536.692V548.978C1348 549.12 1348.06 549.251 1348.17 549.322C1348.27 549.391 1348.4 549.391 1348.51 549.321L1351.85 547.028C1352.06 546.886 1352.19 546.625 1352.19 546.342V539.112C1352.19 538.96 1352.26 538.82 1352.37 538.748L1355.49 536.714C1355.55 536.676 1355.61 536.658 1355.68 536.658C1355.74 536.658 1355.81 536.677 1355.87 536.714L1358.99 538.749C1359.1 538.822 1359.17 538.962 1359.17 539.113V546.343C1359.17 546.626 1359.29 546.888 1359.5 547.03L1362.85 549.322C1362.95 549.393 1363.08 549.393 1363.19 549.324C1363.29 549.251 1363.35 549.12 1363.35 548.978V536.694C1363.35 536.348 1363.2 536.031 1362.94 535.864Z" fill="url(#paint8_linear_174_177)"/>
</g>
<g id="react-js 1">
<g id="Group_2">
<path id="Vector_9" fill-rule="evenodd" clip-rule="evenodd" d="M1093 677.008C1093 672.842 1088.11 668.897 1080.6 666.445C1082.34 658.293 1081.56 651.809 1078.17 649.732C1077.39 649.246 1076.48 649.015 1075.48 649.015V651.876C1076.03 651.876 1076.48 651.994 1076.85 652.209C1078.49 653.207 1079.2 657.014 1078.64 661.911C1078.51 663.114 1078.29 664.383 1078.03 665.678C1075.67 665.064 1073.1 664.588 1070.39 664.281C1068.77 661.911 1067.09 659.757 1065.39 657.874C1069.31 653.984 1072.99 651.861 1075.49 651.861V649C1072.18 649 1067.85 651.513 1063.48 655.873C1059.1 651.538 1054.77 649.051 1051.46 649.051V651.912C1053.95 651.912 1057.64 654.025 1061.57 657.884C1059.88 659.767 1058.2 661.906 1056.6 664.281C1053.88 664.588 1051.31 665.064 1048.95 665.688C1048.67 664.409 1048.47 663.165 1048.33 661.973C1047.76 657.075 1048.46 653.268 1050.08 652.255C1050.44 652.024 1050.92 651.922 1051.47 651.922V649.067C1050.46 649.067 1049.54 649.297 1048.75 649.783C1045.37 651.861 1044.61 658.334 1046.36 666.461C1038.87 668.917 1034 672.852 1034 677.008C1034 681.173 1038.89 685.119 1046.4 687.57C1044.66 695.722 1045.44 702.206 1048.83 704.284C1049.61 704.77 1050.52 705 1051.53 705C1054.84 705 1059.17 702.487 1063.55 698.127C1067.93 702.462 1072.25 704.949 1075.56 704.949C1076.57 704.949 1077.49 704.719 1078.28 704.232C1081.66 702.155 1082.42 695.681 1080.67 687.555C1088.13 685.109 1093 681.158 1093 677.008ZM1068.98 677.008C1068.98 673.773 1066.52 671.148 1063.49 671.148C1060.45 671.148 1057.99 673.768 1057.99 677.008C1057.99 680.247 1060.45 682.867 1063.49 682.867C1066.52 682.862 1068.98 680.242 1068.98 677.008ZM1077.34 668.456C1076.9 670.109 1076.34 671.813 1075.72 673.518C1075.23 672.494 1074.71 671.466 1074.14 670.442C1073.59 669.419 1073 668.416 1072.41 667.443C1074.12 667.714 1075.77 668.047 1077.34 668.456ZM1071.84 682.11C1070.9 683.839 1069.93 685.482 1068.94 687.007C1067.14 687.176 1065.33 687.263 1063.5 687.263C1061.69 687.263 1059.87 687.171 1058.09 687.017C1057.09 685.492 1056.12 683.865 1055.18 682.146C1054.27 680.467 1053.44 678.763 1052.68 677.043C1053.42 675.324 1054.27 673.61 1055.16 671.931C1056.1 670.201 1057.07 668.559 1058.06 667.034C1059.86 666.865 1061.67 666.778 1063.5 666.778C1065.31 666.778 1067.13 666.87 1068.91 667.024C1069.91 668.549 1070.88 670.176 1071.82 671.895C1072.73 673.574 1073.56 675.278 1074.32 676.997C1073.56 678.712 1072.74 680.426 1071.84 682.11ZM1075.72 680.441C1076.37 682.161 1076.92 683.875 1077.38 685.544C1075.81 685.953 1074.14 686.301 1072.43 686.567C1073.02 685.579 1073.6 684.566 1074.16 683.527C1074.71 682.504 1075.23 681.465 1075.72 680.441ZM1063.52 694.115C1062.41 692.887 1061.29 691.516 1060.18 690.016C1061.26 690.067 1062.37 690.108 1063.49 690.108C1064.62 690.108 1065.74 690.083 1066.83 690.016C1065.75 691.516 1064.63 692.887 1063.52 694.115ZM1054.58 686.567C1052.87 686.296 1051.22 685.963 1049.65 685.554C1050.09 683.901 1050.65 682.197 1051.27 680.493C1051.77 681.516 1052.28 682.545 1052.85 683.568C1053.41 684.597 1053.99 685.595 1054.58 686.567ZM1063.46 659.895C1064.58 661.123 1065.7 662.495 1066.8 663.994C1065.72 663.943 1064.61 663.902 1063.5 663.902C1062.37 663.902 1061.25 663.928 1060.15 663.994C1061.24 662.495 1062.36 661.123 1063.46 659.895ZM1054.56 667.443C1053.97 668.431 1053.39 669.444 1052.83 670.483C1052.28 671.506 1051.76 672.535 1051.27 673.559C1050.62 671.839 1050.07 670.125 1049.6 668.456C1051.18 668.057 1052.85 667.714 1054.56 667.443ZM1043.68 683.491C1039.42 681.557 1036.67 679.019 1036.67 677.008C1036.67 674.997 1039.43 672.443 1043.68 670.524C1044.71 670.048 1045.85 669.628 1047.01 669.229C1047.7 671.742 1048.6 674.357 1049.72 677.033C1048.62 679.699 1047.72 682.299 1047.05 684.802C1045.86 684.402 1044.73 683.967 1043.68 683.491ZM1050.15 701.807C1048.51 700.809 1047.81 697.001 1048.36 692.104C1048.5 690.901 1048.71 689.632 1048.98 688.338C1051.33 688.952 1053.91 689.428 1056.61 689.735C1058.23 692.104 1059.92 694.259 1061.61 696.142C1057.69 700.026 1054.01 702.155 1051.51 702.155C1050.97 702.139 1050.51 702.027 1050.15 701.807ZM1078.68 692.043C1079.24 696.94 1078.54 700.747 1076.92 701.761C1076.56 701.991 1076.09 702.093 1075.54 702.093C1073.05 702.093 1069.36 699.98 1065.43 696.121C1067.12 694.238 1068.8 692.099 1070.4 689.724C1073.12 689.417 1075.69 688.942 1078.05 688.312C1078.33 689.607 1078.54 690.85 1078.68 692.043ZM1083.31 683.491C1082.27 683.967 1081.14 684.387 1079.97 684.786C1079.29 682.274 1078.38 679.659 1077.27 676.982C1078.37 674.316 1079.26 671.716 1079.94 669.214C1081.13 669.613 1082.25 670.048 1083.32 670.519C1087.57 672.453 1090.33 674.991 1090.33 677.003C1090.32 679.019 1087.56 681.567 1083.31 683.491Z" fill="url(#paint9_radial_174_177)"/>
</g>
</g>
<g id="Component 15">
<path id="MongoDB" d="M1327.98 392V386.28H1329.05L1331.7 388.136H1331.74L1334.39 386.28H1335.46V392H1334.18V387.88L1332.36 389.096V392H1331.08V389.096L1329.26 387.88V392H1327.98ZM1338.97 392.04C1338.26 392.04 1337.7 391.864 1337.3 391.512C1336.9 391.155 1336.7 390.632 1336.7 389.944C1336.7 389.251 1336.9 388.728 1337.3 388.376C1337.7 388.019 1338.26 387.84 1338.97 387.84H1340.45C1341.17 387.84 1341.72 388.019 1342.12 388.376C1342.52 388.728 1342.72 389.251 1342.72 389.944C1342.72 390.632 1342.52 391.155 1342.12 391.512C1341.72 391.864 1341.17 392.04 1340.45 392.04H1338.97ZM1338.97 391.12H1340.45C1340.8 391.12 1341.06 391.024 1341.24 390.832C1341.43 390.64 1341.52 390.344 1341.52 389.944C1341.52 389.539 1341.43 389.24 1341.24 389.048C1341.06 388.856 1340.8 388.76 1340.45 388.76H1338.97C1338.62 388.76 1338.36 388.856 1338.17 389.048C1337.99 389.24 1337.9 389.539 1337.9 389.944C1337.9 390.344 1337.99 390.64 1338.17 390.832C1338.36 391.024 1338.62 391.12 1338.97 391.12ZM1343.84 392V387.88H1347.44C1347.91 387.88 1348.25 387.997 1348.46 388.232C1348.68 388.461 1348.79 388.765 1348.79 389.144V392H1347.63V389.28C1347.63 388.96 1347.47 388.8 1347.15 388.8H1345V392H1343.84ZM1351 393.8V392.88H1353.42C1353.74 392.88 1353.9 392.717 1353.9 392.392V392H1352.14C1351.42 392 1350.87 391.824 1350.47 391.472C1350.07 391.12 1349.87 390.611 1349.87 389.944C1349.87 389.272 1350.07 388.76 1350.47 388.408C1350.87 388.056 1351.42 387.88 1352.14 387.88H1355.06V392.536C1355.06 392.915 1354.95 393.219 1354.73 393.448C1354.51 393.683 1354.17 393.8 1353.71 393.8H1351ZM1352.14 391.08H1353.9V388.8H1352.14C1351.79 388.8 1351.52 388.896 1351.34 389.088C1351.16 389.275 1351.07 389.56 1351.07 389.944C1351.07 390.323 1351.16 390.608 1351.34 390.8C1351.52 390.987 1351.79 391.08 1352.14 391.08ZM1358.45 392.04C1357.74 392.04 1357.18 391.864 1356.78 391.512C1356.38 391.155 1356.18 390.632 1356.18 389.944C1356.18 389.251 1356.38 388.728 1356.78 388.376C1357.18 388.019 1357.74 387.84 1358.45 387.84H1359.93C1360.65 387.84 1361.2 388.019 1361.6 388.376C1362 388.728 1362.2 389.251 1362.2 389.944C1362.2 390.632 1362 391.155 1361.6 391.512C1361.2 391.864 1360.65 392.04 1359.93 392.04H1358.45ZM1358.45 391.12H1359.93C1360.28 391.12 1360.54 391.024 1360.72 390.832C1360.91 390.64 1361 390.344 1361 389.944C1361 389.539 1360.91 389.24 1360.72 389.048C1360.54 388.856 1360.28 388.76 1359.93 388.76H1358.45C1358.11 388.76 1357.84 388.856 1357.65 389.048C1357.47 389.24 1357.38 389.539 1357.38 389.944C1357.38 390.344 1357.47 390.64 1357.65 390.832C1357.84 391.024 1358.11 391.12 1358.45 391.12ZM1363.45 392V386.28H1364.39L1366.95 386.272C1367.98 386.272 1368.79 386.515 1369.36 387C1369.93 387.485 1370.21 388.197 1370.21 389.136C1370.21 390.075 1369.93 390.787 1369.36 391.272C1368.79 391.757 1367.98 392 1366.95 392H1363.45ZM1366.86 387.312H1364.73V390.96H1366.86C1367.53 390.96 1368.04 390.813 1368.39 390.52C1368.74 390.227 1368.91 389.765 1368.91 389.136C1368.91 388.501 1368.74 388.04 1368.39 387.752C1368.04 387.459 1367.53 387.312 1366.86 387.312ZM1371.42 392V386.296L1376.23 386.28C1376.87 386.28 1377.34 386.413 1377.64 386.68C1377.95 386.941 1378.1 387.336 1378.1 387.864C1378.1 388.392 1377.93 388.779 1377.58 389.024C1377.81 389.152 1377.98 389.323 1378.1 389.536C1378.21 389.744 1378.26 390.013 1378.26 390.344C1378.26 390.883 1378.11 391.293 1377.8 391.576C1377.5 391.853 1377.03 391.992 1376.39 391.992L1371.42 392ZM1376.08 387.304H1372.7V388.584H1376.08C1376.57 388.584 1376.81 388.365 1376.81 387.928C1376.81 387.512 1376.57 387.304 1376.08 387.304ZM1376.24 389.608H1372.7V390.968H1376.24C1376.73 390.968 1376.97 390.739 1376.97 390.28C1376.97 389.832 1376.73 389.608 1376.24 389.608Z" fill="url(#paint10_radial_174_177)"/>
<g id="Group_3">
<path id="Vector_10" d="M1354.61 328.122L1356.12 330.361C1356.47 330.774 1356.84 331.14 1357.27 331.481C1358.54 332.479 1359.75 333.524 1360.84 334.643C1363.41 337.295 1365.15 340.24 1366.39 343.425C1367.13 345.371 1367.53 347.367 1367.56 349.385C1367.69 355.419 1365.05 360.6 1359.74 364.905C1358.87 365.586 1357.94 366.217 1356.94 366.778C1356.42 366.778 1356.17 366.461 1355.95 366.17C1355.55 365.635 1355.3 365.025 1355.18 364.418C1354.99 363.688 1354.87 362.958 1354.93 362.204V361.864C1354.89 361.791 1354.42 328.294 1354.61 328.123V328.123L1354.61 328.122Z" fill="url(#paint11_linear_174_177)"/>
<path id="Vector_11" d="M1354.61 328.048C1354.54 327.95 1354.48 328.024 1354.42 328.072C1354.45 328.56 1354.23 328.996 1353.89 329.412C1353.52 329.825 1353.02 330.142 1352.53 330.482C1349.77 332.355 1347.6 334.618 1345.86 337.148C1343.55 340.554 1342.36 344.203 1342.02 348.046C1341.87 349.432 1342.58 354.323 1343.14 355.734C1344.66 359.48 1347.38 362.619 1350.92 365.343C1351.79 365.999 1352.72 366.607 1353.68 367.192C1353.96 367.192 1353.99 366.997 1354.05 366.851C1354.17 366.541 1354.27 366.223 1354.33 365.902L1354.95 362.254L1354.61 328.048H1354.61Z" fill="url(#paint12_linear_174_177)"/>
<path id="Vector_12" d="M1356.13 368.26C1356.19 367.701 1356.53 367.238 1356.9 366.776C1356.53 366.655 1356.25 366.413 1356.03 366.144C1355.85 365.901 1355.69 365.609 1355.57 365.341C1355.14 364.32 1355.04 363.248 1354.92 362.204V361.572C1354.76 361.669 1354.73 362.495 1354.73 362.618C1354.65 363.719 1354.45 364.823 1354.17 365.903C1354.08 366.341 1354.02 366.778 1353.68 367.167C1353.68 367.216 1353.68 367.265 1353.71 367.338C1354.26 368.628 1354.42 369.941 1354.51 371.28V371.768C1354.51 372.351 1354.48 372.228 1355.1 372.424C1355.35 372.497 1355.63 372.521 1355.87 372.667C1356.06 372.667 1356.09 372.546 1356.09 372.448L1356 371.645V369.406C1355.97 369.015 1356.06 368.627 1356.12 368.262L1356.13 368.26V368.26Z" fill="#C2BFBF"/>
</g>
</g>
</g>
<defs>
<linearGradient id="paint0_linear_174_177" x1="395.234" y1="123.676" x2="284.269" y2="-42.0664" gradientUnits="userSpaceOnUse">
<stop stop-color="#496789"/>
<stop offset="0.537185" stop-color="#B2D7EE"/>
<stop offset="1" stop-color="#6C849F"/>
</linearGradient>
<radialGradient id="paint1_radial_174_177" cx="0" cy="0" r="1" gradientUnits="userSpaceOnUse" gradientTransform="translate(1061.03 825) rotate(-129.806) scale(351.461 364.357)">
<stop stop-color="#325379"/>
<stop offset="1" stop-color="#D9DFE6"/>
</radialGradient>
<linearGradient id="paint2_linear_174_177" x1="1192.38" y1="550.033" x2="1454.39" y2="-23.8105" gradientUnits="userSpaceOnUse">
<stop stop-color="#486688"/>
<stop offset="0.515625" stop-color="#2B7BD7" stop-opacity="0.27"/>
<stop offset="1" stop-color="#B2D7EE"/>
</linearGradient>
<linearGradient id="paint3_linear_174_177" x1="336.085" y1="1378.03" x2="813.346" y2="951.044" gradientUnits="userSpaceOnUse">
<stop stop-color="#486688"/>
<stop offset="0.515625" stop-color="#2B7BD7" stop-opacity="0.27"/>
<stop offset="1" stop-color="#B2D7EE"/>
</linearGradient>
<radialGradient id="paint4_radial_174_177" cx="0" cy="0" r="1" gradientUnits="userSpaceOnUse" gradientTransform="translate(916 563.496) rotate(90) scale(27.5128 24)">
<stop offset="0.151042" stop-color="#FF4500"/>
<stop offset="1" stop-color="#833C4C"/>
</radialGradient>
<radialGradient id="paint5_radial_174_177" cx="0" cy="0" r="1" gradientUnits="userSpaceOnUse" gradientTransform="translate(1263.5 659.002) rotate(90) scale(26.0021 26.4977)">
<stop offset="0.104167" stop-color="#FF4500"/>
<stop offset="0.994792" stop-color="#7D3647"/>
</radialGradient>
<radialGradient id="paint6_radial_174_177" cx="0" cy="0" r="1" gradientUnits="userSpaceOnUse" gradientTransform="translate(1237 235) rotate(90) scale(16.0001 26)">
<stop stop-color="#FF4500"/>
<stop offset="1" stop-color="#7E3848"/>
</radialGradient>
<linearGradient id="paint7_linear_174_177" x1="1390.57" y1="519.75" x2="1390.57" y2="551.021" gradientUnits="userSpaceOnUse">
<stop stop-color="#FF4500"/>
<stop offset="1" stop-color="#7E3748"/>
</linearGradient>
<linearGradient id="paint8_linear_174_177" x1="1381.5" y1="531.271" x2="1381.5" y2="551.023" gradientUnits="userSpaceOnUse">
<stop stop-color="#FF4500"/>
<stop offset="1" stop-color="#7E3748"/>
</linearGradient>
<radialGradient id="paint9_radial_174_177" cx="0" cy="0" r="1" gradientUnits="userSpaceOnUse" gradientTransform="translate(1063.5 677) rotate(90) scale(28 29.5)">
<stop stop-color="#FF4500"/>
<stop offset="1" stop-color="#7E3748"/>
</radialGradient>
<radialGradient id="paint10_radial_174_177" cx="0" cy="0" r="1" gradientUnits="userSpaceOnUse" gradientTransform="translate(1353 389.5) rotate(90) scale(17.5 46)">
<stop stop-color="#FF4500"/>
<stop offset="1" stop-color="#944C59"/>
</radialGradient>
<linearGradient id="paint11_linear_174_177" x1="1361.06" y1="328.122" x2="1361.06" y2="366.778" gradientUnits="userSpaceOnUse">
<stop stop-color="#99E36E"/>
<stop offset="1" stop-color="#206D28" stop-opacity="0.62"/>
</linearGradient>
<linearGradient id="paint12_linear_174_177" x1="1348.48" y1="328" x2="1348.48" y2="367.192" gradientUnits="userSpaceOnUse">
<stop stop-color="#5BC221"/>
<stop offset="1" stop-color="#1D3F09" stop-opacity="0.38"/>
</linearGradient>
<clipPath id="clip0_174_177">
<rect width="48" height="55" fill="white" transform="translate(892 536)"/>
</clipPath>
<clipPath id="clip1_174_177">
<rect width="53" height="52" fill="white" transform="translate(1237 633)"/>
</clipPath>
<clipPath id="clip2_174_177">
<rect width="52" height="32" fill="white" transform="translate(1211 219)"/>
</clipPath>
</defs>
</svg>
