<svg width="88" height="88" viewBox="0 0 88 88" fill="none" xmlns="http://www.w3.org/2000/svg">
<g filter="url(#filter0_d_154_289)">
<g clip-path="url(#clip0_154_289)">
<path d="M44 80C21.9086 80 4 62.0914 4 40V40C4 17.9086 21.9086 0 44 0V0C66.0914 0 84 17.9086 84 40V40C84 62.0914 66.0914 80 44 80V80Z" fill="white"/>
<path d="M209.046 63.8982C80.6637 145.542 70.2996 87.8501 81.9632 29.9363C91.9838 -19.8192 95.6328 -72.1914 95.2794 -122.945C94.467 -239.61 158.075 -453.479 612.801 -522.814C680.084 -533.073 704.722 -500.767 713.125 -468.719C722.302 -433.717 703.24 -399.439 679.1 -372.483C593.705 -277.125 375.452 -41.9268 209.046 63.8982Z" fill="url(#paint0_radial_154_289)"/>
<path d="M30.8453 136.588C-38.6584 263.681 -89.665 -254.397 25.2958 -94.4479C140.257 65.5009 109.613 -129.791 151.405 -97.477C167.55 -84.9937 175.756 -63.6448 179.039 -38.8174C187.093 22.0894 60.3235 82.6849 30.8453 136.588V136.588Z" fill="url(#paint1_linear_154_289)"/>
<g clip-path="url(#clip1_154_289)">
<path fill-rule="evenodd" clip-rule="evenodd" d="M50.1343 50.9763C41.4591 50.9763 39.6404 46.9479 39.6404 43.5328C39.6404 43.3785 39.7007 43.2305 39.808 43.1214C39.9154 43.0123 40.061 42.951 40.2129 42.951H42.7758C42.912 42.9514 43.0436 43.0013 43.1469 43.0915C43.2502 43.1818 43.3185 43.3065 43.3395 43.4433C43.727 46.0975 44.8763 47.4358 50.1255 47.4358C54.3046 47.4358 56.0793 46.4645 56.0793 44.2266C56.0793 42.9286 55.5729 41.9886 49.0818 41.3217C43.6521 40.7757 40.2745 39.5627 40.2745 35.145C40.2745 31.0808 43.6477 28.6594 49.302 28.6594C55.6521 28.6594 58.7963 30.8973 59.1927 35.7134C59.1991 35.7948 59.1886 35.8767 59.1621 35.9537C59.1356 36.0308 59.0935 36.1014 59.0385 36.161C58.9819 36.2216 58.9135 36.2696 58.8377 36.3019C58.7619 36.3343 58.6804 36.3503 58.5982 36.349H56.0661C55.9374 36.3493 55.8124 36.3052 55.7116 36.2239C55.6108 36.1425 55.5401 36.0289 55.5112 35.9014C54.8903 33.1129 53.393 32.2177 49.3152 32.2177C44.753 32.2088 44.2202 33.8246 44.2202 35.0331C44.2202 36.5012 44.8455 36.9309 51.0018 37.7589C57.1582 38.5869 59.9941 39.7507 59.9941 44.0968C59.9941 48.4429 56.3919 51.0031 50.1079 51.0031L50.1343 50.9763ZM44.0088 67C43.2793 67.0005 42.5625 66.806 41.9303 66.4361L35.3248 62.4525C34.334 61.8885 34.8184 61.6916 35.1442 61.5573C36.1948 61.2218 37.2005 60.7558 38.1387 60.1698C38.2171 60.1324 38.3036 60.1161 38.3899 60.1223C38.4763 60.1286 38.5596 60.1573 38.6319 60.2056L43.7182 63.2716C43.8133 63.3222 43.9191 63.3486 44.0264 63.3486C44.1338 63.3486 44.2396 63.3222 44.3347 63.2716L64.1512 51.6342C64.244 51.5777 64.3208 51.4977 64.374 51.402C64.4273 51.3062 64.4552 51.1981 64.4551 51.0882V27.8582C64.4554 27.7464 64.4272 27.6365 64.3731 27.5392C64.3191 27.4419 64.2411 27.3606 64.1468 27.3032L44.3303 15.6658C44.2374 15.6108 44.1318 15.5817 44.0242 15.5817C43.9167 15.5817 43.8111 15.6108 43.7182 15.6658L23.9017 27.3032C23.8066 27.359 23.7276 27.4392 23.6727 27.5359C23.6179 27.6325 23.589 27.7421 23.589 27.8537V51.1284C23.5887 51.2383 23.6171 51.3464 23.6713 51.4415C23.7254 51.5366 23.8034 51.6155 23.8973 51.67L29.327 54.8569C32.2642 56.3384 34.0918 54.5704 34.0918 52.798V29.841C34.0912 29.7641 34.1057 29.6877 34.1345 29.6166C34.1634 29.5454 34.2059 29.4808 34.2597 29.4266C34.3134 29.3724 34.3773 29.3297 34.4475 29.3009C34.5177 29.2721 34.5929 29.2579 34.6686 29.2591H37.1743C37.2497 29.2585 37.3244 29.2732 37.3941 29.3022C37.4638 29.3313 37.5272 29.3741 37.5804 29.4282C37.6337 29.4824 37.6759 29.5468 37.7044 29.6176C37.733 29.6885 37.7474 29.7644 37.7468 29.841V52.8069C37.7468 56.8039 35.6022 59.0732 31.8767 59.0732C30.7317 59.0732 29.8246 59.0732 27.3057 57.811L22.0785 54.7853C21.4464 54.4107 20.9219 53.8743 20.5572 53.2296C20.1926 52.5848 20.0004 51.8542 20 51.1105L20 27.8358C19.9987 27.0918 20.19 26.3604 20.5549 25.7154C20.9198 25.0703 21.4452 24.5343 22.0785 24.1611L41.9259 12.5237C42.5655 12.1692 43.2824 11.9834 44.011 11.9834C44.7396 11.9834 45.4565 12.1692 46.0962 12.5237L65.9127 24.1611C66.5502 24.5357 67.0791 25.075 67.4456 25.7242C67.8122 26.3735 68.0034 27.1096 68 27.8582V51.1329C67.9983 51.8763 67.8056 52.6064 67.441 53.2509C67.0765 53.8954 66.5527 54.432 65.9215 54.8076L46.105 66.445C45.4697 66.8155 44.75 67.0099 44.0176 67.009V67.009L44.0088 67Z" fill="black"/>
</g>
<path d="M30.8453 136.588C-38.6584 263.681 -89.665 -254.397 25.2958 -94.4479C140.257 65.5009 109.613 -129.791 151.405 -97.477C167.55 -84.9937 175.756 -63.6448 179.039 -38.8174C187.093 22.0894 60.3235 82.6849 30.8453 136.588V136.588Z" fill="url(#paint2_linear_154_289)"/>
<g clip-path="url(#clip2_154_289)">
<path d="M70 54.1701C68.1085 54.6801 66.9385 54.1924 65.889 52.5207L58.4236 41.5653L57.3445 40.0484L48.6264 52.5571C47.6303 54.0621 46.5855 54.7165 44.7264 54.1841L55.8902 38.2886L45.4966 23.9302C47.284 23.5617 48.5191 23.7491 49.6158 25.4472L57.3589 36.5391L65.1589 25.5076C66.1581 24.0026 67.2326 23.4309 69.0266 23.9853L64.9967 29.6526L59.5367 37.1936C58.8865 38.0553 58.9758 38.6452 59.5741 39.4771L70 54.1701ZM18.0133 38.023L18.9263 33.2587C21.4125 23.8301 31.6013 19.9122 38.6279 25.738C42.7343 29.1645 43.7549 34.0116 43.5517 39.4411H20.4051C20.0576 49.2142 26.6892 55.1124 35.1437 52.1033C38.1092 51.0468 39.856 48.5833 40.7304 45.5019C41.1742 43.9576 41.9082 43.716 43.2767 44.1574C42.5783 48.0116 41.0019 51.2313 37.6705 53.2463C32.6933 56.2624 25.5882 55.287 21.8513 51.0952C19.6247 48.6628 18.7051 45.5813 18.2925 42.2855C18.2274 41.7407 18.0975 41.222 18 40.6999C18.0086 39.808 18.0133 38.9165 18.0133 38.0246V38.023V38.023ZM20.4473 37.3681H41.3642C41.2277 30.3013 37.0792 25.2817 31.4094 25.2391C25.1858 25.1874 20.7167 30.0874 20.4469 37.3681H20.4473V37.3681Z" fill="url(#paint3_radial_154_289)"/>
</g>
</g>
</g>
<defs>
<filter id="filter0_d_154_289" x="0" y="0" width="88" height="88" filterUnits="userSpaceOnUse" color-interpolation-filters="sRGB">
<feFlood flood-opacity="0" result="BackgroundImageFix"/>
<feColorMatrix in="SourceAlpha" type="matrix" values="0 0 0 0 0 0 0 0 0 0 0 0 0 0 0 0 0 0 127 0" result="hardAlpha"/>
<feOffset dy="4"/>
<feGaussianBlur stdDeviation="2"/>
<feComposite in2="hardAlpha" operator="out"/>
<feColorMatrix type="matrix" values="0 0 0 0 0 0 0 0 0 0 0 0 0 0 0 0 0 0 0.25 0"/>
<feBlend mode="normal" in2="BackgroundImageFix" result="effect1_dropShadow_154_289"/>
<feBlend mode="normal" in="SourceGraphic" in2="effect1_dropShadow_154_289" result="shape"/>
</filter>
<radialGradient id="paint0_radial_154_289" cx="0" cy="0" r="1" gradientUnits="userSpaceOnUse" gradientTransform="translate(23.027 232.479) rotate(-116.519) scale(129.413 606.141)">
<stop stop-color="#325379"/>
<stop offset="1" stop-color="#D9DFE6"/>
</radialGradient>
<linearGradient id="paint1_linear_154_289" x1="41.9384" y1="113.233" x2="184.291" y2="36.5608" gradientUnits="userSpaceOnUse">
<stop stop-color="#CFD7E0"/>
<stop offset="0.435415" stop-color="#5B7694"/>
<stop offset="1" stop-color="#8A9DB3" stop-opacity="0"/>
</linearGradient>
<linearGradient id="paint2_linear_154_289" x1="41.9384" y1="113.233" x2="184.291" y2="36.5608" gradientUnits="userSpaceOnUse">
<stop stop-color="#CFD7E0"/>
<stop offset="0.435415" stop-color="#5B7694"/>
<stop offset="1" stop-color="#8A9DB3" stop-opacity="0"/>
</linearGradient>
<radialGradient id="paint3_radial_154_289" cx="0" cy="0" r="1" gradientUnits="userSpaceOnUse" gradientTransform="translate(44 38.9998) rotate(90) scale(16.0001 26)">
<stop stop-color="#D5898C"/>
<stop offset="1" stop-color="#7E3848"/>
</radialGradient>
<clipPath id="clip0_154_289">
<path d="M44 80C21.9086 80 4 62.0914 4 40V40C4 17.9086 21.9086 0 44 0V0C66.0914 0 84 17.9086 84 40V40C84 62.0914 66.0914 80 44 80V80Z" fill="white"/>
</clipPath>
<clipPath id="clip1_154_289">
<rect width="48" height="55" fill="white" transform="translate(20 12)"/>
</clipPath>
<clipPath id="clip2_154_289">
<rect width="52" height="32" fill="white" transform="translate(18 23)"/>
</clipPath>
</defs>
</svg>
