<svg width="88" height="88" viewBox="0 0 88 88" fill="none" xmlns="http://www.w3.org/2000/svg">
<g filter="url(#filter0_d_142_176)">
<g clip-path="url(#clip0_142_176)">
<path d="M44 80C21.9086 80 4 62.0914 4 40V40C4 17.9086 21.9086 0 44 0V0C66.0914 0 84 17.9086 84 40V40C84 62.0914 66.0914 80 44 80V80Z" fill="white"/>
<path d="M209.046 63.8982C80.6637 145.542 70.2996 87.8501 81.9632 29.9363C91.9838 -19.8192 95.6328 -72.1914 95.2794 -122.945C94.467 -239.61 158.075 -453.479 612.801 -522.814C680.084 -533.073 704.722 -500.767 713.125 -468.719C722.302 -433.717 703.24 -399.439 679.1 -372.483C593.705 -277.125 375.452 -41.9268 209.046 63.8982Z" fill="url(#paint0_radial_142_176)"/>
<path d="M30.8453 136.588C-38.6584 263.681 -89.665 -254.397 25.2958 -94.4479C140.257 65.5009 109.613 -129.791 151.405 -97.477C167.55 -84.9937 175.756 -63.6448 179.039 -38.8174C187.093 22.0894 60.3235 82.6849 30.8453 136.588V136.588Z" fill="url(#paint1_linear_142_176)"/>
<path d="M43.6054 6.12231L45.1244 8.36114C45.466 8.7742 45.8361 9.14003 46.2716 9.48073C47.5434 10.4787 48.7512 11.5239 49.8365 12.6435C52.41 15.2954 54.1463 18.2404 55.3857 21.4253C56.1295 23.371 56.5329 25.3669 56.5632 27.385C56.6875 33.4187 54.0516 38.5996 48.7371 42.905C47.8692 43.5861 46.9406 44.2169 45.9445 44.778C45.4181 44.778 45.1688 44.4611 44.9519 44.1697C44.5485 43.635 44.3009 43.025 44.1766 42.4179C43.9896 41.6876 43.8671 40.958 43.9277 40.2042V39.8639C43.885 39.7912 43.421 6.29417 43.6058 6.12265V6.12298L43.6054 6.12231Z" fill="url(#paint2_linear_142_176)"/>
<path d="M43.6061 6.04793C43.5438 5.95045 43.4819 6.02415 43.4191 6.07172C43.4494 6.56015 43.2321 6.99566 42.8927 7.41173C42.5192 7.82479 42.0248 8.14204 41.5282 8.48241C38.7715 10.3554 36.6014 12.618 34.8634 15.1483C32.5511 18.554 31.3591 22.2035 31.0214 26.046C30.8669 27.4319 31.5803 32.3226 32.137 33.7336C33.656 37.4796 36.3846 40.6186 39.9187 43.3429C40.7867 43.9988 41.7152 44.6072 42.6758 45.1921C42.955 45.1921 42.9854 44.9968 43.049 44.8514C43.1706 44.5405 43.265 44.2229 43.3282 43.902L43.9507 40.2538L43.6057 6.04793H43.6061Z" fill="url(#paint3_linear_142_176)"/>
<path d="M45.1251 46.2599C45.1874 45.7014 45.529 45.2381 45.9008 44.7761C45.5273 44.6549 45.2498 44.4133 45.0329 44.144C44.8459 43.9011 44.6913 43.6093 44.5705 43.3413C44.1363 42.3196 44.0441 41.2476 43.9194 40.2037V39.5715C43.7649 39.669 43.7324 40.4955 43.7324 40.6184C43.6458 41.7189 43.4532 42.8227 43.174 43.9031C43.0814 44.3413 43.0195 44.7782 42.6758 45.1674C42.6758 45.2163 42.6758 45.2649 42.7061 45.3379C43.2645 46.6277 43.4178 47.9409 43.5117 49.2796V49.768C43.5117 50.3513 43.4814 50.2283 44.0987 50.424C44.3476 50.4967 44.6252 50.5215 44.8741 50.6668C45.0611 50.6668 45.0914 50.5456 45.0914 50.4478L44.9987 49.6451V47.4063C44.9684 47.0153 45.0611 46.6274 45.123 46.2619L45.1251 46.2599V46.2599Z" fill="#C2BFBF"/>
<path d="M18.9772 62V56.28H20.0492L22.6972 58.136H22.7372L25.3852 56.28H26.4572V62H25.1772V57.88L23.3612 59.096V62H22.0812V59.096L20.2572 57.88V62H18.9772ZM29.9707 62.04C29.2561 62.04 28.6987 61.864 28.2987 61.512C27.8987 61.1547 27.6987 60.632 27.6987 59.944C27.6987 59.2507 27.8987 58.728 28.2987 58.376C28.6987 58.0187 29.2561 57.84 29.9707 57.84H31.4507C32.1654 57.84 32.7227 58.0187 33.1227 58.376C33.5227 58.728 33.7227 59.2507 33.7227 59.944C33.7227 60.632 33.5227 61.1547 33.1227 61.512C32.7227 61.864 32.1654 62.04 31.4507 62.04H29.9707ZM29.9707 61.12H31.4507C31.7974 61.12 32.0614 61.024 32.2427 60.832C32.4294 60.64 32.5227 60.344 32.5227 59.944C32.5227 59.5387 32.4294 59.24 32.2427 59.048C32.0614 58.856 31.7974 58.76 31.4507 58.76H29.9707C29.6241 58.76 29.3574 58.856 29.1707 59.048C28.9894 59.24 28.8987 59.5387 28.8987 59.944C28.8987 60.344 28.9894 60.64 29.1707 60.832C29.3574 61.024 29.6241 61.12 29.9707 61.12ZM34.8447 62V57.88H38.4367C38.906 57.88 39.2474 57.9973 39.4607 58.232C39.6794 58.4613 39.7887 58.7653 39.7887 59.144V62H38.6287V59.28C38.6287 58.96 38.4687 58.8 38.1487 58.8H36.0047V62H34.8447ZM42.0019 63.8V62.88H44.4179C44.7379 62.88 44.8979 62.7173 44.8979 62.392V62H43.1379C42.4233 62 41.8659 61.824 41.4659 61.472C41.0659 61.12 40.8659 60.6107 40.8659 59.944C40.8659 59.272 41.0659 58.76 41.4659 58.408C41.8659 58.056 42.4233 57.88 43.1379 57.88H46.0579V62.536C46.0579 62.9147 45.9486 63.2187 45.7299 63.448C45.5113 63.6827 45.1699 63.8 44.7059 63.8H42.0019ZM43.1379 61.08H44.8979V58.8H43.1379C42.7913 58.8 42.5246 58.896 42.3379 59.088C42.1566 59.2747 42.0659 59.56 42.0659 59.944C42.0659 60.3227 42.1566 60.608 42.3379 60.8C42.5246 60.9867 42.7913 61.08 43.1379 61.08ZM49.452 62.04C48.7373 62.04 48.18 61.864 47.78 61.512C47.38 61.1547 47.18 60.632 47.18 59.944C47.18 59.2507 47.38 58.728 47.78 58.376C48.18 58.0187 48.7373 57.84 49.452 57.84H50.932C51.6467 57.84 52.204 58.0187 52.604 58.376C53.004 58.728 53.204 59.2507 53.204 59.944C53.204 60.632 53.004 61.1547 52.604 61.512C52.204 61.864 51.6467 62.04 50.932 62.04H49.452ZM49.452 61.12H50.932C51.2787 61.12 51.5427 61.024 51.724 60.832C51.9107 60.64 52.004 60.344 52.004 59.944C52.004 59.5387 51.9107 59.24 51.724 59.048C51.5427 58.856 51.2787 58.76 50.932 58.76H49.452C49.1053 58.76 48.8387 58.856 48.652 59.048C48.4707 59.24 48.38 59.5387 48.38 59.944C48.38 60.344 48.4707 60.64 48.652 60.832C48.8387 61.024 49.1053 61.12 49.452 61.12ZM54.4459 62V56.28H55.3899L57.9499 56.272C58.9846 56.272 59.7873 56.5147 60.3579 57C60.9286 57.4853 61.2139 58.1973 61.2139 59.136C61.2139 60.0747 60.9286 60.7867 60.3579 61.272C59.7873 61.7573 58.9846 62 57.9499 62H54.4459ZM57.8619 57.312H55.7259V60.96H57.8619C58.5339 60.96 59.0433 60.8133 59.3899 60.52C59.7366 60.2267 59.9099 59.7653 59.9099 59.136C59.9099 58.5013 59.7366 58.04 59.3899 57.752C59.0433 57.4587 58.5339 57.312 57.8619 57.312ZM62.4163 62V56.296L67.2323 56.28C67.8669 56.28 68.3363 56.4133 68.6403 56.68C68.9496 56.9413 69.1043 57.336 69.1043 57.864C69.1043 58.392 68.9283 58.7787 68.5763 59.024C68.8109 59.152 68.9843 59.3227 69.0963 59.536C69.2083 59.744 69.2643 60.0133 69.2643 60.344C69.2643 60.8827 69.1096 61.2933 68.8003 61.576C68.4963 61.8533 68.0269 61.992 67.3923 61.992L62.4163 62ZM67.0803 57.304H63.6963V58.584H67.0803C67.5656 58.584 67.8083 58.3653 67.8083 57.928C67.8083 57.512 67.5656 57.304 67.0803 57.304ZM67.2403 59.608H63.6963V60.968H67.2403C67.7256 60.968 67.9683 60.7387 67.9683 60.28C67.9683 59.832 67.7256 59.608 67.2403 59.608Z" fill="url(#paint4_radial_142_176)"/>
</g>
</g>
<defs>
<filter id="filter0_d_142_176" x="0" y="0" width="88" height="88" filterUnits="userSpaceOnUse" color-interpolation-filters="sRGB">
<feFlood flood-opacity="0" result="BackgroundImageFix"/>
<feColorMatrix in="SourceAlpha" type="matrix" values="0 0 0 0 0 0 0 0 0 0 0 0 0 0 0 0 0 0 127 0" result="hardAlpha"/>
<feOffset dy="4"/>
<feGaussianBlur stdDeviation="2"/>
<feComposite in2="hardAlpha" operator="out"/>
<feColorMatrix type="matrix" values="0 0 0 0 0 0 0 0 0 0 0 0 0 0 0 0 0 0 0.25 0"/>
<feBlend mode="normal" in2="BackgroundImageFix" result="effect1_dropShadow_142_176"/>
<feBlend mode="normal" in="SourceGraphic" in2="effect1_dropShadow_142_176" result="shape"/>
</filter>
<radialGradient id="paint0_radial_142_176" cx="0" cy="0" r="1" gradientUnits="userSpaceOnUse" gradientTransform="translate(23.027 232.479) rotate(-116.519) scale(129.413 606.141)">
<stop stop-color="#325379"/>
<stop offset="1" stop-color="#D9DFE6"/>
</radialGradient>
<linearGradient id="paint1_linear_142_176" x1="41.9384" y1="113.233" x2="184.291" y2="36.5608" gradientUnits="userSpaceOnUse">
<stop stop-color="#CFD7E0"/>
<stop offset="0.435415" stop-color="#5B7694"/>
<stop offset="1" stop-color="#8A9DB3" stop-opacity="0"/>
</linearGradient>
<linearGradient id="paint2_linear_142_176" x1="50.065" y1="6.12231" x2="50.065" y2="44.778" gradientUnits="userSpaceOnUse">
<stop stop-color="#99E36E"/>
<stop offset="1" stop-color="#206D28" stop-opacity="0.62"/>
</linearGradient>
<linearGradient id="paint3_linear_142_176" x1="37.4753" y1="6" x2="37.4753" y2="45.1921" gradientUnits="userSpaceOnUse">
<stop stop-color="#5BC221"/>
<stop offset="1" stop-color="#1D3F09" stop-opacity="0.38"/>
</linearGradient>
<radialGradient id="paint4_radial_142_176" cx="0" cy="0" r="1" gradientUnits="userSpaceOnUse" gradientTransform="translate(44 59.5) rotate(90) scale(17.5 46)">
<stop stop-color="#DD9193"/>
<stop offset="1" stop-color="#944C59"/>
</radialGradient>
<clipPath id="clip0_142_176">
<path d="M44 80C21.9086 80 4 62.0914 4 40V40C4 17.9086 21.9086 0 44 0V0C66.0914 0 84 17.9086 84 40V40C84 62.0914 66.0914 80 44 80V80Z" fill="white"/>
</clipPath>
</defs>
</svg>
