<svg width="67" height="79" viewBox="0 0 67 79" fill="none" xmlns="http://www.w3.org/2000/svg">
<g id="icons8-nodejs-144 1">
<path id="Vector" d="M24.0139 31.4715L17.1646 35.94C16.9077 36.1062 16.75 36.4156 16.75 36.7497V45.6915C16.75 46.0256 16.9077 46.3334 17.1646 46.5013L24.0153 50.973C24.2708 51.1392 24.5876 51.1392 24.843 50.973L31.6924 46.5013C31.9464 46.3334 32.1042 46.0256 32.1042 45.6915V36.7497C32.1042 36.4156 31.9464 36.1078 31.6896 35.94L24.8416 31.4715C24.7132 31.3876 24.5695 31.3464 24.4271 31.3464C24.2833 31.3464 24.1409 31.3876 24.0125 31.4715H24.0139ZM59.2545 39.5213L58.1127 40.2652C58.0695 40.2932 58.0443 40.3442 58.0443 40.4002V41.8913C58.0443 41.9472 58.0709 41.9983 58.1127 42.0263L59.2545 42.7718C59.2978 42.7998 59.3494 42.7998 59.3927 42.7718L60.5345 42.0263C60.5764 41.9983 60.6029 41.9472 60.6029 41.8913V40.4002C60.6029 40.3442 60.5764 40.2932 60.5331 40.2652L59.3913 39.5213C59.3704 39.5065 59.3466 39.4999 59.3229 39.4999C59.2992 39.4999 59.2755 39.5065 59.2545 39.5213Z" fill="#388E3C"/>
<path id="Vector_2" d="M49.9031 21.995L46.5684 19.8011C46.4638 19.732 46.3353 19.7336 46.232 19.8061C46.1288 19.8785 46.0645 20.0085 46.0645 20.15L46.0632 33.4023L42.9881 31.396C42.8597 31.3121 42.7159 31.2709 42.5736 31.2709C42.4312 31.2709 42.2874 31.3121 42.159 31.396H42.1604L35.311 35.8645C35.0542 36.0307 34.8965 36.3401 34.8965 36.6726V45.6144C34.8965 45.9485 35.0542 46.2563 35.311 46.4241L42.1618 50.8959C42.4172 51.0621 42.7341 51.0621 42.9895 50.8959L49.8389 46.4241C50.0929 46.2579 50.2507 45.9485 50.2507 45.6144V22.6929C50.2507 22.4032 50.1167 22.1366 49.9031 21.995ZM45.8761 43.5456L42.7634 45.5782C42.6475 45.6539 42.5038 45.6539 42.3879 45.5782L39.2738 43.5456C39.1552 43.4699 39.084 43.3283 39.084 43.1769V39.1117C39.084 38.9603 39.1552 38.8204 39.2724 38.743L42.3865 36.7121H42.3851C42.4438 36.6742 42.508 36.6561 42.5736 36.6561C42.6392 36.6561 42.7034 36.6759 42.762 36.7121L45.8747 38.743C45.992 38.8204 46.0632 38.9619 46.0632 39.1133V43.1785C46.0632 43.3283 45.992 43.4699 45.8761 43.5456Z" fill="url(#paint0_linear_171_516)"/>
<path id="Vector_3" d="M24.0139 31.4715L16.75 45.6915C16.75 46.0256 16.9077 46.3334 17.1646 46.5013L24.0153 50.973C24.2707 51.1392 24.5876 51.1392 24.843 50.973L32.1042 36.7497C32.1042 36.4156 31.9464 36.1078 31.6896 35.94L24.8416 31.4715C24.7132 31.3876 24.5695 31.3464 24.4271 31.3464C24.2833 31.3464 24.1409 31.3876 24.0125 31.4715" fill="#2E7D32"/>
<path id="Vector_4" d="M24.0139 31.4715L17.1646 35.94C16.9077 36.1062 16.75 36.4156 16.75 36.7497L24.0139 50.973C24.2694 51.1392 24.5862 51.1392 24.8416 50.973L31.691 46.5013C31.9464 46.3334 32.1042 46.0256 32.1042 45.6915L24.8416 31.4715C24.7132 31.3876 24.5695 31.3464 24.4271 31.3464C24.2833 31.3464 24.1409 31.3876 24.0125 31.4715" fill="#4CAF50"/>
<path id="Vector_5" d="M66.5854 35.8643L59.7375 31.3958C59.6091 31.3119 59.4653 31.2708 59.3229 31.2708C59.1805 31.2708 59.0368 31.3119 58.9084 31.3958H58.9097L52.0604 35.8643C51.805 36.0305 51.6458 36.3465 51.6458 36.6921V45.5977C51.6458 45.9417 51.805 46.2594 52.0604 46.4256L58.9112 50.8973C59.168 51.0652 59.482 51.0652 59.7389 50.8973L62.8976 48.8351C63.1866 48.6458 63.1852 48.157 62.8949 47.9694L56.0218 43.547C55.9059 43.4697 55.8333 43.3265 55.8333 43.1718V39.1131C55.8333 38.9617 55.9031 38.8218 56.0148 38.7494L59.1345 36.7152H59.1331C59.1917 36.6773 59.2559 36.6592 59.3215 36.6592C59.3871 36.6592 59.4513 36.679 59.51 36.7152L62.6296 38.7511C62.7413 38.8235 62.8111 38.9634 62.8111 39.1148V42.4262C62.8111 42.5678 62.8753 42.6994 62.98 42.7702C63.0847 42.8393 63.2131 42.8393 63.3178 42.7685L66.665 40.4759C66.8716 40.3344 67 40.0727 67 39.7896V36.6954C67 36.3481 66.8409 36.0305 66.5854 35.8643ZM14.9396 35.8643L8.09165 31.3958C7.96323 31.3119 7.81946 31.2708 7.67708 31.2708C7.53471 31.2708 7.39094 31.3119 7.26252 31.3958H7.26392L0.414562 35.8643C0.159125 36.0305 0 36.3465 0 36.6921V48.9783C0 49.1198 0.0642083 49.2515 0.168896 49.3223C0.273583 49.3914 0.402 49.3914 0.506688 49.3206L3.8539 47.028C4.06048 46.8864 4.1875 46.6247 4.1875 46.3416V39.1115C4.1875 38.9601 4.25729 38.8202 4.36896 38.7478L7.48865 36.7135C7.54727 36.6757 7.61148 36.6576 7.67708 36.6576C7.74269 36.6576 7.8069 36.6773 7.86552 36.7135L10.9852 38.7494C11.0969 38.8218 11.1667 38.9617 11.1667 39.1131V46.3433C11.1667 46.6264 11.2937 46.8881 11.5017 47.0296L14.8489 49.3223C14.9536 49.393 15.082 49.393 15.1867 49.3239C15.29 49.2515 15.3542 49.1198 15.3542 48.9783V36.6938C15.3542 36.3481 15.195 36.0305 14.9396 35.8643Z" fill="url(#paint1_linear_171_516)"/>
</g>
<defs>
<linearGradient id="paint0_linear_171_516" x1="42.5736" y1="19.7505" x2="42.5736" y2="51.0205" gradientUnits="userSpaceOnUse">
<stop stop-color="#FF4500"/>
<stop offset="1" stop-color="#7E3748"/>
</linearGradient>
<linearGradient id="paint1_linear_171_516" x1="33.5" y1="31.2708" x2="33.5" y2="51.0232" gradientUnits="userSpaceOnUse">
<stop stop-color="#FF4500"/>
<stop offset="1" stop-color="#7E3748"/>
</linearGradient>
</defs>
</svg>
