<svg width="88" height="88" viewBox="0 0 88 88" fill="none" xmlns="http://www.w3.org/2000/svg">
<g filter="url(#filter0_d_155_328)">
<g clip-path="url(#clip0_155_328)">
<path d="M44 80C21.9086 80 4 62.0914 4 40C4 17.9086 21.9086 0 44 0C66.0914 0 84 17.9086 84 40C84 62.0914 66.0914 80 44 80Z" fill="white"/>
<path d="M209.046 63.8982C80.6637 145.542 70.2996 87.8501 81.9632 29.9363C91.9838 -19.8192 95.6328 -72.1914 95.2794 -122.945C94.467 -239.61 158.075 -453.479 612.801 -522.814C680.084 -533.073 704.722 -500.767 713.125 -468.719C722.302 -433.717 703.24 -399.439 679.1 -372.483C593.705 -277.125 375.452 -41.9268 209.046 63.8982Z" fill="url(#paint0_radial_155_328)"/>
<path d="M30.8453 136.588C-38.6584 263.681 -89.665 -254.397 25.2958 -94.4479C140.257 65.5009 109.613 -129.791 151.405 -97.477C167.55 -84.9937 175.756 -63.6448 179.039 -38.8174C187.093 22.0894 60.3235 82.6849 30.8453 136.588Z" fill="url(#paint1_linear_155_328)"/>
<g clip-path="url(#clip1_155_328)">
<path fill-rule="evenodd" clip-rule="evenodd" d="M50.1343 50.9763C41.4591 50.9763 39.6404 46.9479 39.6404 43.5328C39.6404 43.3785 39.7007 43.2305 39.8081 43.1214C39.9154 43.0123 40.061 42.951 40.2129 42.951H42.7758C42.912 42.9514 43.0436 43.0013 43.1469 43.0915C43.2502 43.1818 43.3185 43.3065 43.3395 43.4433C43.727 46.0975 44.8763 47.4358 50.1255 47.4358C54.3046 47.4358 56.0793 46.4645 56.0793 44.2266C56.0793 42.9286 55.5729 41.9886 49.0818 41.3217C43.6521 40.7757 40.2745 39.5627 40.2745 35.145C40.2745 31.0808 43.6477 28.6594 49.302 28.6594C55.6521 28.6594 58.7963 30.8973 59.1927 35.7134C59.1991 35.7948 59.1886 35.8767 59.1621 35.9537C59.1356 36.0308 59.0935 36.1014 59.0385 36.161C58.9819 36.2216 58.9135 36.2696 58.8377 36.3019C58.7619 36.3343 58.6804 36.3503 58.5982 36.349H56.0661C55.9374 36.3493 55.8124 36.3052 55.7116 36.2239C55.6108 36.1425 55.5401 36.0289 55.5112 35.9014C54.8903 33.1129 53.393 32.2177 49.3152 32.2177C44.753 32.2088 44.2202 33.8246 44.2202 35.0331C44.2202 36.5012 44.8455 36.9309 51.0018 37.7589C57.1582 38.5869 59.9941 39.7507 59.9941 44.0968C59.9941 48.4429 56.3919 51.0031 50.1079 51.0031L50.1343 50.9763ZM44.0088 67C43.2793 67.0005 42.5625 66.806 41.9303 66.4361L35.3248 62.4525C34.334 61.8885 34.8184 61.6916 35.1442 61.5573C36.1948 61.2218 37.2005 60.7558 38.1387 60.1698C38.2171 60.1324 38.3036 60.1161 38.3899 60.1223C38.4763 60.1286 38.5596 60.1573 38.6319 60.2056L43.7182 63.2716C43.8133 63.3222 43.9191 63.3486 44.0264 63.3486C44.1338 63.3486 44.2396 63.3222 44.3347 63.2716L64.1512 51.6342C64.244 51.5777 64.3208 51.4977 64.374 51.402C64.4273 51.3062 64.4552 51.1981 64.4551 51.0882V27.8582C64.4554 27.7464 64.4272 27.6365 64.3731 27.5392C64.3191 27.4419 64.2411 27.3606 64.1468 27.3032L44.3303 15.6658C44.2374 15.6108 44.1318 15.5817 44.0242 15.5817C43.9167 15.5817 43.8111 15.6108 43.7182 15.6658L23.9017 27.3032C23.8066 27.359 23.7276 27.4392 23.6727 27.5359C23.6179 27.6325 23.589 27.7421 23.589 27.8537V51.1284C23.5887 51.2383 23.6171 51.3464 23.6713 51.4415C23.7254 51.5366 23.8034 51.6155 23.8973 51.67L29.327 54.8569C32.2642 56.3384 34.0918 54.5704 34.0918 52.798V29.841C34.0912 29.7641 34.1057 29.6877 34.1345 29.6166C34.1634 29.5454 34.2059 29.4808 34.2597 29.4266C34.3134 29.3724 34.3773 29.3297 34.4475 29.3009C34.5177 29.2721 34.5929 29.2579 34.6686 29.2591H37.1743C37.2497 29.2585 37.3244 29.2732 37.3941 29.3022C37.4638 29.3313 37.5272 29.3741 37.5804 29.4282C37.6337 29.4824 37.6758 29.5468 37.7044 29.6176C37.733 29.6885 37.7474 29.7644 37.7468 29.841V52.8069C37.7468 56.8039 35.6022 59.0732 31.8767 59.0732C30.7317 59.0732 29.8246 59.0732 27.3057 57.811L22.0785 54.7853C21.4464 54.4107 20.9219 53.8743 20.5572 53.2296C20.1926 52.5848 20.0004 51.8542 20 51.1105L20 27.8358C19.9987 27.0918 20.19 26.3604 20.5549 25.7154C20.9198 25.0703 21.4452 24.5343 22.0785 24.1611L41.9259 12.5237C42.5655 12.1692 43.2824 11.9834 44.011 11.9834C44.7396 11.9834 45.4565 12.1692 46.0962 12.5237L65.9127 24.1611C66.5502 24.5357 67.0791 25.075 67.4456 25.7242C67.8122 26.3735 68.0034 27.1096 68 27.8582V51.1329C67.9983 51.8763 67.8056 52.6064 67.441 53.2509C67.0765 53.8954 66.5527 54.432 65.9215 54.8076L46.105 66.445C45.4697 66.8155 44.75 67.0099 44.0176 67.009L44.0088 67Z" fill="black"/>
</g>
<path d="M30.8453 136.588C-38.6584 263.681 -89.665 -254.397 25.2958 -94.4479C140.257 65.5009 109.613 -129.791 151.405 -97.477C167.55 -84.9937 175.756 -63.6448 179.039 -38.8174C187.093 22.0894 60.3235 82.6849 30.8453 136.588Z" fill="url(#paint2_linear_155_328)"/>
<path d="M34.0139 30.4715L27.1646 34.94C26.9077 35.1062 26.75 35.4156 26.75 35.7497V44.6915C26.75 45.0256 26.9077 45.3334 27.1646 45.5013L34.0153 49.973C34.2708 50.1392 34.5876 50.1392 34.843 49.973L41.6924 45.5013C41.9464 45.3334 42.1042 45.0256 42.1042 44.6915V35.7497C42.1042 35.4156 41.9464 35.1078 41.6896 34.94L34.8416 30.4715C34.7132 30.3876 34.5695 30.3464 34.4271 30.3464C34.2833 30.3464 34.1409 30.3876 34.0125 30.4715H34.0139ZM69.2545 38.5213L68.1127 39.2652C68.0695 39.2932 68.0443 39.3442 68.0443 39.4002V40.8913C68.0443 40.9472 68.0709 40.9983 68.1127 41.0263L69.2545 41.7718C69.2978 41.7998 69.3494 41.7998 69.3927 41.7718L70.5345 41.0263C70.5764 40.9983 70.6029 40.9472 70.6029 40.8913V39.4002C70.6029 39.3442 70.5764 39.2932 70.5331 39.2652L69.3913 38.5213C69.3704 38.5065 69.3466 38.4999 69.3229 38.4999C69.2992 38.4999 69.2755 38.5065 69.2545 38.5213Z" fill="#388E3C"/>
<path d="M59.9011 20.995L56.5665 18.8011C56.4618 18.732 56.3334 18.7336 56.2301 18.8061C56.1268 18.8785 56.0626 19.0085 56.0626 19.15L56.0612 32.4023L52.9862 30.396C52.8578 30.3121 52.714 30.2709 52.5716 30.2709C52.4292 30.2709 52.2855 30.3121 52.1571 30.396H52.1584L45.3091 34.8645C45.0523 35.0307 44.8945 35.3401 44.8945 35.6726V44.6144C44.8945 44.9485 45.0523 45.2563 45.3091 45.4241L52.1598 49.8959C52.4153 50.0621 52.7321 50.0621 52.9876 49.8959L59.8369 45.4241C60.091 45.2579 60.2487 44.9485 60.2487 44.6144V21.6929C60.2487 21.4032 60.1147 21.1366 59.9011 20.995ZM55.8742 42.5456L52.7614 44.5782C52.6456 44.6539 52.5018 44.6539 52.386 44.5782L49.2719 42.5456C49.1532 42.4699 49.082 42.3283 49.082 42.1769V38.1117C49.082 37.9603 49.1532 37.8204 49.2705 37.743L52.3846 35.7121H52.3832C52.4418 35.6742 52.506 35.6561 52.5716 35.6561C52.6372 35.6561 52.7014 35.6759 52.7601 35.7121L55.8728 37.743C55.99 37.8204 56.0612 37.9619 56.0612 38.1133V42.1785C56.0612 42.3283 55.99 42.4699 55.8742 42.5456Z" fill="url(#paint3_linear_155_328)"/>
<path d="M34.0139 30.4715L26.75 44.6915C26.75 45.0256 26.9077 45.3334 27.1646 45.5013L34.0153 49.973C34.2707 50.1392 34.5876 50.1392 34.843 49.973L42.1042 35.7497C42.1042 35.4156 41.9464 35.1078 41.6896 34.94L34.8416 30.4715C34.7132 30.3876 34.5695 30.3464 34.4271 30.3464C34.2833 30.3464 34.1409 30.3876 34.0125 30.4715" fill="#2E7D32"/>
<path d="M34.0139 30.4715L27.1646 34.94C26.9077 35.1062 26.75 35.4156 26.75 35.7497L34.0139 49.973C34.2694 50.1392 34.5862 50.1392 34.8416 49.973L41.691 45.5013C41.9464 45.3334 42.1042 45.0256 42.1042 44.6915L34.8416 30.4715C34.7132 30.3876 34.5695 30.3464 34.4271 30.3464C34.2833 30.3464 34.1409 30.3876 34.0125 30.4715" fill="#4CAF50"/>
<path d="M76.5854 34.8643L69.7375 30.3958C69.6091 30.3119 69.4653 30.2708 69.3229 30.2708C69.1805 30.2708 69.0368 30.3119 68.9084 30.3958H68.9097L62.0604 34.8643C61.805 35.0305 61.6458 35.3465 61.6458 35.6921V44.5977C61.6458 44.9417 61.805 45.2594 62.0604 45.4256L68.9112 49.8973C69.168 50.0652 69.482 50.0652 69.7389 49.8973L72.8976 47.8351C73.1866 47.6458 73.1852 47.157 72.8949 46.9694L66.0218 42.547C65.9059 42.4697 65.8333 42.3265 65.8333 42.1718V38.1131C65.8333 37.9617 65.9031 37.8218 66.0148 37.7494L69.1345 35.7152H69.1331C69.1917 35.6773 69.2559 35.6592 69.3215 35.6592C69.3871 35.6592 69.4513 35.679 69.51 35.7152L72.6296 37.7511C72.7413 37.8235 72.8111 37.9634 72.8111 38.1148V41.4262C72.8111 41.5678 72.8753 41.6994 72.98 41.7702C73.0847 41.8393 73.2131 41.8393 73.3178 41.7685L76.665 39.4759C76.8716 39.3344 77 39.0727 77 38.7896V35.6954C77 35.3481 76.8409 35.0305 76.5854 34.8643ZM24.9396 34.8643L18.0916 30.3958C17.9632 30.3119 17.8195 30.2708 17.6771 30.2708C17.5347 30.2708 17.3909 30.3119 17.2625 30.3958H17.2639L10.4146 34.8643C10.1591 35.0305 10 35.3465 10 35.6921V47.9783C10 48.1198 10.0642 48.2515 10.1689 48.3223C10.2736 48.3914 10.402 48.3914 10.5067 48.3206L13.8539 46.028C14.0605 45.8864 14.1875 45.6247 14.1875 45.3416V38.1115C14.1875 37.9601 14.2573 37.8202 14.369 37.7478L17.4886 35.7135C17.5473 35.6757 17.6115 35.6576 17.6771 35.6576C17.7427 35.6576 17.8069 35.6773 17.8655 35.7135L20.9852 37.7494C21.0969 37.8218 21.1667 37.9617 21.1667 38.1131V45.3433C21.1667 45.6264 21.2937 45.8881 21.5017 46.0296L24.8489 48.3223C24.9536 48.393 25.082 48.393 25.1867 48.3239C25.29 48.2515 25.3542 48.1198 25.3542 47.9783V35.6938C25.3542 35.3481 25.195 35.0305 24.9396 34.8643Z" fill="url(#paint4_linear_155_328)"/>
</g>
</g>
<defs>
<filter id="filter0_d_155_328" x="0" y="0" width="88" height="88" filterUnits="userSpaceOnUse" color-interpolation-filters="sRGB">
<feFlood flood-opacity="0" result="BackgroundImageFix"/>
<feColorMatrix in="SourceAlpha" type="matrix" values="0 0 0 0 0 0 0 0 0 0 0 0 0 0 0 0 0 0 127 0" result="hardAlpha"/>
<feOffset dy="4"/>
<feGaussianBlur stdDeviation="2"/>
<feComposite in2="hardAlpha" operator="out"/>
<feColorMatrix type="matrix" values="0 0 0 0 0 0 0 0 0 0 0 0 0 0 0 0 0 0 0.25 0"/>
<feBlend mode="normal" in2="BackgroundImageFix" result="effect1_dropShadow_155_328"/>
<feBlend mode="normal" in="SourceGraphic" in2="effect1_dropShadow_155_328" result="shape"/>
</filter>
<radialGradient id="paint0_radial_155_328" cx="0" cy="0" r="1" gradientUnits="userSpaceOnUse" gradientTransform="translate(23.027 232.479) rotate(-116.519) scale(129.413 606.141)">
<stop stop-color="#325379"/>
<stop offset="1" stop-color="#D9DFE6"/>
</radialGradient>
<linearGradient id="paint1_linear_155_328" x1="41.9384" y1="113.233" x2="184.291" y2="36.5608" gradientUnits="userSpaceOnUse">
<stop stop-color="#CFD7E0"/>
<stop offset="0.435415" stop-color="#5B7694"/>
<stop offset="1" stop-color="#8A9DB3" stop-opacity="0"/>
</linearGradient>
<linearGradient id="paint2_linear_155_328" x1="41.9384" y1="113.233" x2="184.291" y2="36.5608" gradientUnits="userSpaceOnUse">
<stop stop-color="#CFD7E0"/>
<stop offset="0.435415" stop-color="#5B7694"/>
<stop offset="1" stop-color="#8A9DB3" stop-opacity="0"/>
</linearGradient>
<linearGradient id="paint3_linear_155_328" x1="52.5716" y1="18.7505" x2="52.5716" y2="50.0205" gradientUnits="userSpaceOnUse">
<stop stop-color="#C77C81"/>
<stop offset="1" stop-color="#7E3748"/>
</linearGradient>
<linearGradient id="paint4_linear_155_328" x1="43.5" y1="30.2708" x2="43.5" y2="50.0232" gradientUnits="userSpaceOnUse">
<stop stop-color="#C77C81"/>
<stop offset="1" stop-color="#7E3748"/>
</linearGradient>
<clipPath id="clip0_155_328">
<path d="M44 80C21.9086 80 4 62.0914 4 40C4 17.9086 21.9086 0 44 0C66.0914 0 84 17.9086 84 40C84 62.0914 66.0914 80 44 80Z" fill="white"/>
</clipPath>
<clipPath id="clip1_155_328">
<rect width="48" height="55" fill="white" transform="translate(20 12)"/>
</clipPath>
</defs>
</svg>
