<svg width="100" height="32" viewBox="0 0 100 32" fill="none" xmlns="http://www.w3.org/2000/svg">
<g filter="url(#filter0_d_183_6012)">
<path d="M14.0479 17.8691C15.2796 17.8691 16.2106 17.4287 16.8408 16.5479C17.0199 16.6481 17.1667 16.7412 17.2812 16.8271C17.5749 17.0563 17.7217 17.3822 17.7217 17.8047C17.7217 18.4779 17.4531 19.0293 16.916 19.459C16.3789 19.8958 15.7559 20.1143 15.0469 20.1143C14.3451 20.1143 13.7077 20.0498 13.1348 19.9209C12.569 19.792 12.1035 19.6523 11.7383 19.502C10.7643 19.0866 9.50749 18.8789 7.96777 18.8789C7.7959 18.5423 7.70996 18.1914 7.70996 17.8262C7.70996 17.4609 7.74577 17.2103 7.81738 17.0742C8.25423 16.9954 8.63737 16.9561 8.9668 16.9561C9.30339 16.9561 9.60417 16.9775 9.86914 17.0205C10.1413 17.0706 10.3776 17.1279 10.5781 17.1924C10.7786 17.264 11.0042 17.3392 11.2549 17.418C11.5127 17.4967 11.7633 17.5684 12.0068 17.6328C12.5726 17.7904 13.2529 17.8691 14.0479 17.8691ZM17.3027 7.94336C17.3027 9.98438 16.8444 11.7103 15.9277 13.1211C15.0111 14.5247 13.6934 15.4844 11.9746 16C11.151 16.2435 10.2559 16.3652 9.28906 16.3652C8.32943 16.3652 7.36621 16.1934 6.39941 15.8496C5.43262 15.4987 4.56608 15.0081 3.7998 14.3779C3.04069 13.7406 2.43197 12.9277 1.97363 11.9395C1.5153 10.9512 1.28613 9.86263 1.28613 8.67383C1.28613 6.45378 1.79818 4.65267 2.82227 3.27051C3.84635 1.88835 5.32161 0.939453 7.24805 0.423828C7.91406 0.244792 8.62305 0.155273 9.375 0.155273C10.1341 0.155273 10.8968 0.259115 11.6631 0.466797C12.4294 0.674479 13.1491 0.993164 13.8223 1.42285C14.5026 1.85254 15.1042 2.36458 15.627 2.95898C16.7441 4.23372 17.3027 5.89518 17.3027 7.94336ZM6.19531 13.0137C6.63932 13.5866 7.15495 14.027 7.74219 14.335C8.32943 14.6429 8.94889 14.7969 9.60059 14.7969C10.2523 14.7969 10.8288 14.6787 11.3301 14.4424C11.8385 14.2061 12.2539 13.8945 12.5762 13.5078C12.8984 13.1139 13.167 12.6484 13.3818 12.1113C13.7686 11.1445 13.9619 9.9987 13.9619 8.67383C13.9619 6.66146 13.4857 5.00358 12.5332 3.7002C11.5807 2.39681 10.4134 1.74512 9.03125 1.74512C8.48698 1.74512 7.95703 1.84538 7.44141 2.0459C6.93294 2.24642 6.49251 2.56868 6.12012 3.0127C5.75488 3.44954 5.47917 3.95443 5.29297 4.52734C4.9349 5.58724 4.75586 6.68652 4.75586 7.8252C4.75586 8.96387 4.88477 9.97005 5.14258 10.8438C5.40039 11.7174 5.7513 12.4408 6.19531 13.0137ZM30.2256 12.3262C30.7484 12.3262 31.1208 12.5374 31.3428 12.96C31.5648 13.3825 31.6758 14.0055 31.6758 14.8291C31.6758 15.6527 31.6185 16.1146 31.5039 16.2148C28.9688 16.1074 26.6449 16.0465 24.5322 16.0322C22.4268 16.0179 21.0768 16.0072 20.4824 16C20.6901 14.2884 20.7939 12.3978 20.7939 10.3281V3.36719C20.7939 2.74414 20.6973 2.3431 20.5039 2.16406C20.418 2.08529 20.2926 2.01725 20.1279 1.95996C20.0205 1.81673 19.9668 1.58757 19.9668 1.27246C19.9668 0.950195 19.9775 0.724609 19.999 0.595703C20.6364 0.588542 21.5316 0.58138 22.6846 0.574219C23.8376 0.567057 24.7292 0.559896 25.3594 0.552734C27.1283 0.53125 29.1764 0.473958 31.5039 0.380859C31.6185 0.48112 31.6758 0.943034 31.6758 1.7666C31.6758 2.59017 31.5648 3.21322 31.3428 3.63574C31.1208 4.05827 30.7054 4.26953 30.0967 4.26953C29.488 4.26953 29.0618 4.07975 28.8184 3.7002V2.40039C26.7272 2.30013 25.0622 2.25 23.8232 2.25C24.0023 3.03776 24.0918 4.00456 24.0918 5.15039C24.0918 5.23633 24.0918 5.31868 24.0918 5.39746V7.39551L28.7109 7.15918C28.8255 7.29525 28.8828 7.57096 28.8828 7.98633C28.8828 8.39453 28.847 8.81348 28.7754 9.24316C28.3815 9.30046 27.8193 9.3291 27.0889 9.3291C26.3656 9.3291 25.3665 9.25749 24.0918 9.11426V11.209C24.0918 11.2878 24.0918 11.3701 24.0918 11.4561C24.0918 12.609 24.0023 13.5723 23.8232 14.3457C25.0622 14.3457 26.7272 14.2956 28.8184 14.1953V12.8955C28.9401 12.6592 29.2194 12.4909 29.6562 12.3906C29.8281 12.3477 30.0179 12.3262 30.2256 12.3262ZM33.3301 6.00977C33.2799 5.66602 33.2549 5.47982 33.2549 5.45117C33.2549 5.38672 33.2585 5.32585 33.2656 5.26855C34.1751 4.9248 35.1025 4.75293 36.0479 4.75293C36.3773 4.75293 36.8141 4.78516 37.3584 4.84961C37.5231 4.92122 37.6771 5.03223 37.8203 5.18262C37.9635 5.33301 38.1354 5.58008 38.3359 5.92383C38.5436 6.26042 39.0521 7.16276 39.8613 8.63086C40.7207 7.02669 41.3366 5.7806 41.709 4.89258C42.2604 4.74935 42.7904 4.67773 43.2988 4.67773C43.8073 4.67773 44.2764 4.74219 44.7061 4.87109C43.6533 6.57552 42.332 8.33366 40.7422 10.1455C42.0026 12.2939 43.3454 13.848 44.7705 14.8076C44.7705 15.2445 44.6022 15.6097 44.2656 15.9033C43.9362 16.1969 43.5352 16.3438 43.0625 16.3438C42.998 16.3438 42.862 16.3366 42.6543 16.3223C42.4538 16.3151 42.1816 16.2148 41.8379 16.0215C41.5013 15.8353 41.1934 15.6097 40.9141 15.3447C40.6348 15.0726 40.334 14.7109 40.0117 14.2598C39.5247 13.5794 38.9769 12.7057 38.3682 11.6387C38.2106 11.9108 37.8883 12.5518 37.4014 13.5615C36.9215 14.5641 36.5169 15.377 36.1875 16C35.6361 16.1432 35.1061 16.2148 34.5977 16.2148C34.0964 16.2148 33.6309 16.1504 33.2012 16.0215C33.6165 15.2624 34.3219 14.2311 35.3174 12.9277C36.32 11.6243 37.0576 10.7041 37.5303 10.167C36.4775 8.33366 35.5967 7.10905 34.8877 6.49316C34.4867 6.1709 33.9674 6.00977 33.3301 6.00977ZM47.7568 22.9717C47.9001 21.5465 47.9717 19.0794 47.9717 15.5703C47.9717 12.054 47.8714 9.3291 47.6709 7.39551C47.6279 6.65788 47.2233 6.25684 46.457 6.19238C46.4499 6.14941 46.4391 6.09928 46.4248 6.04199C46.4176 5.97754 46.4105 5.92741 46.4033 5.8916C46.389 5.79134 46.3818 5.7054 46.3818 5.63379C46.3818 5.56217 46.3854 5.49772 46.3926 5.44043C47.3451 5.0752 48.1221 4.85319 48.7236 4.77441C49.3252 4.68848 49.762 4.64551 50.0342 4.64551C50.3135 4.64551 50.4854 4.64551 50.5498 4.64551C50.7145 4.89616 50.8255 5.35807 50.8828 6.03125C51.377 5.58008 51.9535 5.22201 52.6123 4.95703C53.2783 4.69206 53.8978 4.55957 54.4707 4.55957C55.0508 4.55957 55.5521 4.60612 55.9746 4.69922C56.3971 4.78516 56.8125 4.94987 57.2207 5.19336C57.6361 5.42969 57.9941 5.73763 58.2949 6.11719C59.0326 7.04818 59.4014 8.37663 59.4014 10.1025C59.4014 10.9261 59.2725 11.6924 59.0146 12.4014C58.7568 13.1104 58.4167 13.7083 57.9941 14.1953C57.5788 14.6823 57.1025 15.0977 56.5654 15.4414C55.527 16.1074 54.4922 16.4404 53.4609 16.4404C52.4297 16.4404 51.599 16.3366 50.9688 16.1289C50.9688 17.4824 50.9544 19.7848 50.9258 23.0361C50.2741 23.1507 49.6868 23.208 49.1641 23.208C48.6484 23.208 48.1794 23.1292 47.7568 22.9717ZM50.9258 7.18066C50.9544 8.97103 50.9688 11.4919 50.9688 14.7432C51.4128 14.9079 51.9176 14.9902 52.4834 14.9902C53.0563 14.9902 53.5361 14.9007 53.9229 14.7217C54.3096 14.5355 54.6712 14.2633 55.0078 13.9053C55.7454 13.1104 56.1143 11.9108 56.1143 10.3066C56.1143 8.65234 55.7741 7.53516 55.0938 6.95508C54.5853 6.51823 53.9551 6.2998 53.2031 6.2998C52.4583 6.2998 51.6992 6.59342 50.9258 7.18066ZM64.8477 11.3594C65.0625 12.4193 65.5208 13.2751 66.2227 13.9268C66.9245 14.5785 67.7445 14.9043 68.6826 14.9043C69.6208 14.9043 70.5661 14.4997 71.5186 13.6904C71.8766 13.9268 72.0951 14.2061 72.1738 14.5283C71.515 15.2946 70.541 15.8424 69.252 16.1719C68.7292 16.3079 68.124 16.376 67.4365 16.376C66.7562 16.376 66.0508 16.2507 65.3203 16C64.5898 15.7565 63.9346 15.3984 63.3545 14.9258C62.7816 14.4531 62.3268 13.8337 61.9902 13.0674C61.6536 12.2939 61.4854 11.4382 61.4854 10.5C61.4854 9.56185 61.6572 8.71322 62.001 7.9541C62.3447 7.18783 62.7995 6.5612 63.3652 6.07422C64.5469 5.05013 65.9004 4.53809 67.4258 4.53809C68.765 4.53809 69.9251 4.89974 70.9062 5.62305C71.3789 5.98112 71.7549 6.44661 72.0342 7.01953C72.3206 7.58529 72.4639 8.22624 72.4639 8.94238C72.4639 10.167 72.0592 10.8115 71.25 10.876L64.8477 11.3594ZM69.5742 8.62012C69.5742 7.7679 69.3379 7.10189 68.8652 6.62207C68.3926 6.14225 67.7731 5.90234 67.0068 5.90234C66.2406 5.90234 65.6605 6.264 65.2666 6.9873C64.8727 7.70345 64.6758 8.69889 64.6758 9.97363C66.459 9.78027 68.0703 9.57617 69.5098 9.36133C69.5527 9.10352 69.5742 8.85645 69.5742 8.62012ZM81.7666 8.79199C81.7666 7.56738 81.4873 6.95508 80.9287 6.95508C80.5205 6.95508 80.1302 7.07324 79.7578 7.30957C79.3854 7.53874 78.9844 7.861 78.5547 8.27637C78.5547 8.99251 78.5332 11.5742 78.4902 16.0215C77.6953 16.1576 77.0436 16.2256 76.5352 16.2256C76.0339 16.2256 75.6006 16.1576 75.2354 16.0215C75.3213 14.8327 75.3643 12.7952 75.3643 9.90918V7.39551C75.3643 6.85124 75.1745 6.52897 74.7949 6.42871C74.5371 6.34993 74.1898 6.29264 73.7529 6.25684C73.7028 6.04199 73.6777 5.88086 73.6777 5.77344C73.6777 5.65885 73.6813 5.56934 73.6885 5.50488C74.7197 4.9248 75.9945 4.63477 77.5127 4.63477C77.7633 4.63477 77.9495 4.63835 78.0713 4.64551C78.279 5.00358 78.4007 5.37598 78.4365 5.7627C78.4795 6.14941 78.5117 6.51823 78.5332 6.86914C79.4928 5.70182 80.3021 4.99284 80.9609 4.74219C81.276 4.62044 81.609 4.55957 81.96 4.55957C82.6761 4.55957 83.249 4.76009 83.6787 5.16113C84.1156 5.55501 84.334 6.13509 84.334 6.90137C84.334 7.48861 84.1191 7.97917 83.6895 8.37305C83.2669 8.75977 82.7549 8.95312 82.1533 8.95312C82.0244 8.95312 81.8955 8.94238 81.7666 8.9209V8.79199ZM92.0469 13.8408C92.3047 14.0771 92.4515 14.3206 92.4873 14.5713C91.542 15.7744 90.4499 16.376 89.2109 16.376C88.4017 16.376 87.8288 16.0537 87.4922 15.4092C87.2057 14.8434 87.0303 13.873 86.9658 12.498C86.9085 10.3496 86.8799 8.34798 86.8799 6.49316C86.1494 6.46452 85.7018 6.42871 85.5371 6.38574C85.5013 6.32845 85.4834 6.11719 85.4834 5.75195C85.4834 5.38672 85.5013 5.1862 85.5371 5.15039L86.9014 5.02148C86.9014 4.87109 86.9229 4.15137 86.9658 2.8623C87.3239 2.49707 87.8467 2.21777 88.5342 2.02441C89.2288 1.82389 89.8447 1.72363 90.3818 1.72363C90.2816 2.63314 90.1992 3.73242 90.1348 5.02148C90.3711 5.02865 91.0837 5.07161 92.2725 5.15039C92.3083 5.27214 92.3262 5.50488 92.3262 5.84863C92.3262 6.19238 92.3083 6.40007 92.2725 6.47168C91.6136 6.55762 90.8796 6.61133 90.0703 6.63281C90.0417 7.48503 90.0273 8.56283 90.0273 9.86621C90.0273 11.1624 90.056 12.387 90.1133 13.54C90.1348 13.984 90.3568 14.2061 90.7793 14.2061C91.209 14.2061 91.6315 14.0843 92.0469 13.8408Z" fill="url(#paint0_radial_183_6012)"/>
</g>
<defs>
<filter id="filter0_d_183_6012" x="0.285156" y="0.155273" width="99.2031" height="31.0527" filterUnits="userSpaceOnUse" color-interpolation-filters="sRGB">
<feFlood flood-opacity="0" result="BackgroundImageFix"/>
<feColorMatrix in="SourceAlpha" type="matrix" values="0 0 0 0 0 0 0 0 0 0 0 0 0 0 0 0 0 0 127 0" result="hardAlpha"/>
<feOffset dx="3" dy="4"/>
<feGaussianBlur stdDeviation="2"/>
<feComposite in2="hardAlpha" operator="out"/>
<feColorMatrix type="matrix" values="0 0 0 0 0 0 0 0 0 0 0 0 0 0 0 0 0 0 0.25 0"/>
<feBlend mode="normal" in2="BackgroundImageFix" result="effect1_dropShadow_183_6012"/>
<feBlend mode="normal" in="SourceGraphic" in2="effect1_dropShadow_183_6012" result="shape"/>
</filter>
<radialGradient id="paint0_radial_183_6012" cx="0" cy="0" r="1" gradientUnits="userSpaceOnUse" gradientTransform="translate(46.5 9.5) rotate(90) scale(14.5 57.5)">
<stop stop-color="#FF2E00"/>
<stop offset="1" stop-color="#843E4D"/>
</radialGradient>
</defs>
</svg>
