<svg width="88" height="88" viewBox="0 0 88 88" fill="none" xmlns="http://www.w3.org/2000/svg">
<g filter="url(#filter0_d_153_227)">
<g clip-path="url(#clip0_153_227)">
<path d="M44 80C21.9086 80 4 62.0914 4 40C4 17.9086 21.9086 0 44 0C66.0914 0 84 17.9086 84 40C84 62.0914 66.0914 80 44 80Z" fill="white"/>
<path d="M209.046 63.8982C80.6637 145.542 70.2996 87.8501 81.9632 29.9363C91.9838 -19.8192 95.6328 -72.1914 95.2794 -122.945C94.467 -239.61 158.075 -453.479 612.801 -522.814C680.084 -533.073 704.722 -500.767 713.125 -468.719C722.302 -433.717 703.24 -399.439 679.1 -372.483C593.705 -277.125 375.452 -41.9268 209.046 63.8982Z" fill="url(#paint0_radial_153_227)"/>
<path d="M30.8453 136.588C-38.6584 263.681 -89.665 -254.397 25.2958 -94.4479C140.257 65.5009 109.613 -129.791 151.405 -97.477C167.55 -84.9937 175.756 -63.6448 179.039 -38.8174C187.093 22.0894 60.3235 82.6849 30.8453 136.588Z" fill="url(#paint1_linear_153_227)"/>
<g clip-path="url(#clip1_153_227)">
<path fill-rule="evenodd" clip-rule="evenodd" d="M50.1343 50.9763C41.4591 50.9763 39.6404 46.9479 39.6404 43.5328C39.6404 43.3785 39.7007 43.2305 39.8081 43.1214C39.9154 43.0123 40.061 42.951 40.2129 42.951H42.7758C42.912 42.9514 43.0436 43.0013 43.1469 43.0915C43.2502 43.1818 43.3185 43.3065 43.3395 43.4433C43.727 46.0975 44.8763 47.4358 50.1255 47.4358C54.3046 47.4358 56.0793 46.4645 56.0793 44.2266C56.0793 42.9286 55.5729 41.9886 49.0818 41.3217C43.6521 40.7757 40.2745 39.5627 40.2745 35.145C40.2745 31.0808 43.6477 28.6594 49.302 28.6594C55.6521 28.6594 58.7963 30.8973 59.1927 35.7134C59.1991 35.7948 59.1886 35.8767 59.1621 35.9537C59.1356 36.0308 59.0935 36.1014 59.0385 36.161C58.9819 36.2216 58.9135 36.2696 58.8377 36.3019C58.7619 36.3343 58.6804 36.3503 58.5982 36.349H56.0661C55.9374 36.3493 55.8124 36.3052 55.7116 36.2239C55.6108 36.1425 55.5401 36.0289 55.5112 35.9014C54.8903 33.1129 53.393 32.2177 49.3152 32.2177C44.753 32.2088 44.2202 33.8246 44.2202 35.0331C44.2202 36.5012 44.8455 36.9309 51.0018 37.7589C57.1582 38.5869 59.9941 39.7507 59.9941 44.0968C59.9941 48.4429 56.3919 51.0031 50.1079 51.0031L50.1343 50.9763ZM44.0088 67C43.2793 67.0005 42.5625 66.806 41.9303 66.4361L35.3248 62.4525C34.334 61.8885 34.8184 61.6916 35.1442 61.5573C36.1948 61.2218 37.2005 60.7558 38.1387 60.1698C38.2171 60.1324 38.3036 60.1161 38.3899 60.1223C38.4763 60.1286 38.5596 60.1573 38.6319 60.2056L43.7182 63.2716C43.8133 63.3222 43.9191 63.3486 44.0264 63.3486C44.1338 63.3486 44.2396 63.3222 44.3347 63.2716L64.1512 51.6342C64.244 51.5777 64.3208 51.4977 64.374 51.402C64.4273 51.3062 64.4552 51.1981 64.4551 51.0882V27.8582C64.4554 27.7464 64.4272 27.6365 64.3731 27.5392C64.3191 27.4419 64.2411 27.3606 64.1468 27.3032L44.3303 15.6658C44.2374 15.6108 44.1318 15.5817 44.0242 15.5817C43.9167 15.5817 43.8111 15.6108 43.7182 15.6658L23.9017 27.3032C23.8066 27.359 23.7276 27.4392 23.6727 27.5359C23.6179 27.6325 23.589 27.7421 23.589 27.8537V51.1284C23.5887 51.2383 23.6171 51.3464 23.6713 51.4415C23.7254 51.5366 23.8034 51.6155 23.8973 51.67L29.327 54.8569C32.2642 56.3384 34.0918 54.5704 34.0918 52.798V29.841C34.0912 29.7641 34.1057 29.6877 34.1345 29.6166C34.1634 29.5454 34.2059 29.4808 34.2597 29.4266C34.3134 29.3724 34.3773 29.3297 34.4475 29.3009C34.5177 29.2721 34.5929 29.2579 34.6686 29.2591H37.1743C37.2497 29.2585 37.3244 29.2732 37.3941 29.3022C37.4638 29.3313 37.5272 29.3741 37.5804 29.4282C37.6337 29.4824 37.6758 29.5468 37.7044 29.6176C37.733 29.6885 37.7474 29.7644 37.7468 29.841V52.8069C37.7468 56.8039 35.6022 59.0732 31.8767 59.0732C30.7317 59.0732 29.8246 59.0732 27.3057 57.811L22.0785 54.7853C21.4464 54.4107 20.9219 53.8743 20.5572 53.2296C20.1926 52.5848 20.0004 51.8542 20 51.1105L20 27.8358C19.9987 27.0918 20.19 26.3604 20.5549 25.7154C20.9198 25.0703 21.4452 24.5343 22.0785 24.1611L41.9259 12.5237C42.5655 12.1692 43.2824 11.9834 44.011 11.9834C44.7396 11.9834 45.4565 12.1692 46.0962 12.5237L65.9127 24.1611C66.5502 24.5357 67.0791 25.075 67.4456 25.7242C67.8122 26.3735 68.0034 27.1096 68 27.8582V51.1329C67.9983 51.8763 67.8056 52.6064 67.441 53.2509C67.0765 53.8954 66.5527 54.432 65.9215 54.8076L46.105 66.445C45.4697 66.8155 44.75 67.0099 44.0176 67.009L44.0088 67Z" fill="black"/>
</g>
<path d="M30.8453 136.588C-38.6584 263.681 -89.665 -254.397 25.2958 -94.4479C140.257 65.5009 109.613 -129.791 151.405 -97.477C167.55 -84.9937 175.756 -63.6448 179.039 -38.8174C187.093 22.0894 60.3235 82.6849 30.8453 136.588Z" fill="url(#paint2_linear_153_227)"/>
<path fill-rule="evenodd" clip-rule="evenodd" d="M73 39.0077C73 34.8421 68.1073 30.8966 60.6027 28.4453C62.336 20.2932 61.563 13.8095 58.1732 11.7318C57.3905 11.2456 56.4783 11.0154 55.4796 11.0154V13.876C56.0317 13.876 56.4783 13.9937 56.8528 14.2086C58.4901 15.2065 59.1959 19.0139 58.6437 23.9113C58.5093 25.1139 58.2932 26.383 58.0291 27.6777C55.6716 27.0636 53.0981 26.5877 50.3949 26.2806C48.772 23.9113 47.0867 21.7568 45.3918 19.8736C49.3097 15.9844 52.9876 13.8606 55.4892 13.8606V11C52.181 11 47.8549 13.5127 43.476 17.8727C39.0971 13.5382 34.771 11.0512 31.4628 11.0512V13.9118C33.95 13.9118 37.6423 16.0253 41.565 19.8839C39.8797 21.7671 38.1992 23.9061 36.6003 26.2806C33.8827 26.5877 31.3092 27.0636 28.9517 27.6879C28.6732 26.4086 28.4715 25.165 28.3275 23.9727C27.7609 19.0753 28.4619 15.2679 30.0848 14.2547C30.4449 14.0244 30.9154 13.9221 31.4676 13.9221V11.0665C30.4593 11.0665 29.5422 11.2968 28.75 11.783C25.3698 13.8606 24.6112 20.3342 26.3589 28.4607C18.8687 30.917 14 34.8523 14 39.0077C14 43.1733 18.8927 47.1188 26.3973 49.57C24.664 57.7221 25.437 64.2059 28.8268 66.2836C29.6095 66.7697 30.5217 67 31.5348 67C34.843 67 39.1691 64.4873 43.548 60.1273C47.9269 64.4618 52.253 66.9488 55.5612 66.9488C56.5695 66.9488 57.4866 66.7185 58.2788 66.2324C61.659 64.1547 62.4176 57.6812 60.6699 49.5547C68.1313 47.1086 73 43.1579 73 39.0077ZM48.9832 39.0077C48.9832 35.7735 46.5249 33.1482 43.4856 33.1482C40.4511 33.1482 37.988 35.7683 37.988 39.0077C37.988 42.247 40.4463 44.8671 43.4856 44.8671C46.5249 44.862 48.9832 42.2419 48.9832 39.0077ZM57.3425 30.4565C56.896 32.1094 56.3438 33.8135 55.7196 35.5176C55.2251 34.4941 54.7113 33.4655 54.1448 32.442C53.5926 31.4185 53.002 30.4155 52.4115 29.4432C54.1208 29.7144 55.7677 30.0471 57.3425 30.4565ZM51.8353 44.1097C50.899 45.8394 49.9339 47.4821 48.9352 49.0071C47.1443 49.176 45.3293 49.263 43.5 49.263C41.6851 49.263 39.8701 49.1709 38.0888 49.0174C37.0901 47.4924 36.1154 45.865 35.1791 44.1456C34.2668 42.4671 33.4362 40.763 32.6776 39.0435C33.4218 37.324 34.2668 35.6097 35.1647 33.9312C36.101 32.2015 37.0661 30.5588 38.0648 29.0338C39.8557 28.8649 41.6707 28.7779 43.5 28.7779C45.3149 28.7779 47.1299 28.8701 48.9112 29.0236C49.9099 30.5486 50.8846 32.1759 51.8209 33.8954C52.7332 35.5739 53.5638 37.278 54.3224 38.9974C53.5638 40.7118 52.738 42.4261 51.8353 44.1097ZM55.7196 42.4415C56.3678 44.1609 56.92 45.8753 57.3809 47.5435C55.8061 47.9529 54.1448 48.3009 52.4259 48.567C53.0164 47.5794 53.6022 46.5661 54.1592 45.5273C54.7065 44.5038 55.2251 43.465 55.7196 42.4415ZM43.524 56.1152C42.4053 54.8871 41.2865 53.5156 40.1822 52.0162C41.2625 52.0673 42.3717 52.1083 43.4904 52.1083C44.6187 52.1083 45.7375 52.0827 46.8322 52.0162C45.7471 53.5156 44.6283 54.8871 43.524 56.1152ZM34.5789 48.567C32.8696 48.2958 31.2227 47.9632 29.6479 47.5538C30.0944 45.9008 30.6466 44.1967 31.2708 42.4926C31.7653 43.5161 32.2791 44.5447 32.8456 45.5682C33.4122 46.5968 33.9884 47.5947 34.5789 48.567ZM43.4616 21.895C44.5803 23.1232 45.6991 24.4947 46.8034 25.9941C45.7231 25.9429 44.6139 25.9019 43.4952 25.9019C42.3669 25.9019 41.2481 25.9275 40.1534 25.9941C41.2385 24.4947 42.3573 23.1232 43.4616 21.895ZM34.5645 29.4432C33.974 30.4309 33.3882 31.4441 32.8312 32.483C32.2791 33.5064 31.7605 34.535 31.266 35.5585C30.6178 33.8391 30.0656 32.1247 29.6047 30.4565C31.1843 30.0573 32.8456 29.7144 34.5645 29.4432ZM23.6797 45.4915C19.4208 43.5571 16.6696 41.0188 16.6696 39.0077C16.6696 36.9965 19.4256 34.4429 23.6797 32.5239C24.712 32.048 25.8451 31.6283 27.0119 31.2292C27.6985 33.7418 28.6012 36.3568 29.7199 39.0333C28.6156 41.6994 27.7225 44.2991 27.0503 46.8015C25.8595 46.4024 24.7264 45.9674 23.6797 45.4915ZM30.152 63.8067C28.5147 62.8088 27.8089 59.0015 28.3611 54.1041C28.4955 52.9015 28.7116 51.6324 28.9757 50.3377C31.3332 50.9518 33.9067 51.4277 36.6099 51.7347C38.2328 54.1041 39.9181 56.2585 41.613 58.1417C37.6903 62.0259 34.0124 64.1547 31.5108 64.1547C30.9683 64.1394 30.5121 64.0268 30.152 63.8067ZM58.6773 54.0427C59.2439 58.9401 58.5429 62.7474 56.92 63.7607C56.5599 63.991 56.0894 64.0933 55.5372 64.0933C53.0501 64.0933 49.3577 61.9798 45.435 58.1213C47.1203 56.2381 48.8008 54.099 50.3997 51.7245C53.1173 51.4174 55.6908 50.9415 58.0483 50.3121C58.3268 51.6068 58.5429 52.8503 58.6773 54.0427ZM63.3059 45.4915C62.2736 45.9674 61.1405 46.387 59.9737 46.7862C59.2871 44.2735 58.3844 41.6585 57.2657 38.9821C58.37 36.3159 59.2631 33.7163 59.9353 31.2138C61.1261 31.613 62.2544 32.048 63.3155 32.5188C67.5744 34.4532 70.3256 36.9914 70.3256 39.0026C70.316 41.0188 67.5648 43.5673 63.3059 45.4915Z" fill="url(#paint3_radial_153_227)"/>
</g>
</g>
<defs>
<filter id="filter0_d_153_227" x="0" y="0" width="88" height="88" filterUnits="userSpaceOnUse" color-interpolation-filters="sRGB">
<feFlood flood-opacity="0" result="BackgroundImageFix"/>
<feColorMatrix in="SourceAlpha" type="matrix" values="0 0 0 0 0 0 0 0 0 0 0 0 0 0 0 0 0 0 127 0" result="hardAlpha"/>
<feOffset dy="4"/>
<feGaussianBlur stdDeviation="2"/>
<feComposite in2="hardAlpha" operator="out"/>
<feColorMatrix type="matrix" values="0 0 0 0 0 0 0 0 0 0 0 0 0 0 0 0 0 0 0.25 0"/>
<feBlend mode="normal" in2="BackgroundImageFix" result="effect1_dropShadow_153_227"/>
<feBlend mode="normal" in="SourceGraphic" in2="effect1_dropShadow_153_227" result="shape"/>
</filter>
<radialGradient id="paint0_radial_153_227" cx="0" cy="0" r="1" gradientUnits="userSpaceOnUse" gradientTransform="translate(23.027 232.479) rotate(-116.519) scale(129.413 606.141)">
<stop stop-color="#325379"/>
<stop offset="1" stop-color="#D9DFE6"/>
</radialGradient>
<linearGradient id="paint1_linear_153_227" x1="41.9384" y1="113.233" x2="184.291" y2="36.5608" gradientUnits="userSpaceOnUse">
<stop stop-color="#CFD7E0"/>
<stop offset="0.435415" stop-color="#5B7694"/>
<stop offset="1" stop-color="#8A9DB3" stop-opacity="0"/>
</linearGradient>
<linearGradient id="paint2_linear_153_227" x1="41.9384" y1="113.233" x2="184.291" y2="36.5608" gradientUnits="userSpaceOnUse">
<stop stop-color="#CFD7E0"/>
<stop offset="0.435415" stop-color="#5B7694"/>
<stop offset="1" stop-color="#8A9DB3" stop-opacity="0"/>
</linearGradient>
<radialGradient id="paint3_radial_153_227" cx="0" cy="0" r="1" gradientUnits="userSpaceOnUse" gradientTransform="translate(43.5 39) rotate(90) scale(28 29.5)">
<stop stop-color="#DC9092"/>
<stop offset="1" stop-color="#7E3748"/>
</radialGradient>
<clipPath id="clip0_153_227">
<path d="M44 80C21.9086 80 4 62.0914 4 40C4 17.9086 21.9086 0 44 0C66.0914 0 84 17.9086 84 40C84 62.0914 66.0914 80 44 80Z" fill="white"/>
</clipPath>
<clipPath id="clip1_153_227">
<rect width="48" height="55" fill="white" transform="translate(20 12)"/>
</clipPath>
</defs>
</svg>
