<svg width="88" height="88" viewBox="0 0 88 88" fill="none" xmlns="http://www.w3.org/2000/svg">
<g filter="url(#filter0_d_154_261)">
<g clip-path="url(#clip0_154_261)">
<path d="M44 80C21.9086 80 4 62.0914 4 40V40C4 17.9086 21.9086 0 44 0V0C66.0914 0 84 17.9086 84 40V40C84 62.0914 66.0914 80 44 80V80Z" fill="white"/>
<path d="M209.046 63.8982C80.6637 145.542 70.2996 87.8501 81.9632 29.9363C91.9838 -19.8192 95.6328 -72.1914 95.2794 -122.945C94.467 -239.61 158.075 -453.479 612.801 -522.814C680.084 -533.073 704.722 -500.767 713.125 -468.719C722.302 -433.717 703.24 -399.439 679.1 -372.483C593.705 -277.125 375.452 -41.9268 209.046 63.8982Z" fill="url(#paint0_radial_154_261)"/>
<path d="M30.8453 136.588C-38.6584 263.681 -89.665 -254.397 25.2958 -94.4479C140.257 65.5009 109.613 -129.791 151.405 -97.477C167.55 -84.9937 175.756 -63.6448 179.039 -38.8174C187.093 22.0894 60.3235 82.6849 30.8453 136.588V136.588Z" fill="url(#paint1_linear_154_261)"/>
<g clip-path="url(#clip1_154_261)">
<path fill-rule="evenodd" clip-rule="evenodd" d="M50.1343 50.9763C41.4591 50.9763 39.6404 46.9479 39.6404 43.5328C39.6404 43.3785 39.7007 43.2305 39.808 43.1214C39.9154 43.0123 40.061 42.951 40.2129 42.951H42.7758C42.912 42.9514 43.0436 43.0013 43.1469 43.0915C43.2502 43.1818 43.3185 43.3065 43.3395 43.4433C43.727 46.0975 44.8763 47.4358 50.1255 47.4358C54.3046 47.4358 56.0793 46.4645 56.0793 44.2266C56.0793 42.9286 55.5729 41.9886 49.0818 41.3217C43.6521 40.7757 40.2745 39.5627 40.2745 35.145C40.2745 31.0808 43.6477 28.6594 49.302 28.6594C55.6521 28.6594 58.7963 30.8973 59.1927 35.7134C59.1991 35.7948 59.1886 35.8767 59.1621 35.9537C59.1356 36.0308 59.0935 36.1014 59.0385 36.161C58.9819 36.2216 58.9135 36.2696 58.8377 36.3019C58.7619 36.3343 58.6804 36.3503 58.5982 36.349H56.0661C55.9374 36.3493 55.8124 36.3052 55.7116 36.2239C55.6108 36.1425 55.5401 36.0289 55.5112 35.9014C54.8903 33.1129 53.393 32.2177 49.3152 32.2177C44.753 32.2088 44.2202 33.8246 44.2202 35.0331C44.2202 36.5012 44.8455 36.9309 51.0018 37.7589C57.1582 38.5869 59.9941 39.7507 59.9941 44.0968C59.9941 48.4429 56.3919 51.0031 50.1079 51.0031L50.1343 50.9763ZM44.0088 67C43.2793 67.0005 42.5625 66.806 41.9303 66.4361L35.3248 62.4525C34.334 61.8885 34.8184 61.6916 35.1442 61.5573C36.1948 61.2218 37.2005 60.7558 38.1387 60.1698C38.2171 60.1324 38.3036 60.1161 38.3899 60.1223C38.4763 60.1286 38.5596 60.1573 38.6319 60.2056L43.7182 63.2716C43.8133 63.3222 43.9191 63.3486 44.0264 63.3486C44.1338 63.3486 44.2396 63.3222 44.3347 63.2716L64.1512 51.6342C64.244 51.5777 64.3208 51.4977 64.374 51.402C64.4273 51.3062 64.4552 51.1981 64.4551 51.0882V27.8582C64.4554 27.7464 64.4272 27.6365 64.3731 27.5392C64.3191 27.4419 64.2411 27.3606 64.1468 27.3032L44.3303 15.6658C44.2374 15.6108 44.1318 15.5817 44.0242 15.5817C43.9167 15.5817 43.8111 15.6108 43.7182 15.6658L23.9017 27.3032C23.8066 27.359 23.7276 27.4392 23.6727 27.5359C23.6179 27.6325 23.589 27.7421 23.589 27.8537V51.1284C23.5887 51.2383 23.6171 51.3464 23.6713 51.4415C23.7254 51.5366 23.8034 51.6155 23.8973 51.67L29.327 54.8569C32.2642 56.3384 34.0918 54.5704 34.0918 52.798V29.841C34.0912 29.7641 34.1057 29.6877 34.1345 29.6166C34.1634 29.5454 34.2059 29.4808 34.2597 29.4266C34.3134 29.3724 34.3773 29.3297 34.4475 29.3009C34.5177 29.2721 34.5929 29.2579 34.6686 29.2591H37.1743C37.2497 29.2585 37.3244 29.2732 37.3941 29.3022C37.4638 29.3313 37.5272 29.3741 37.5804 29.4282C37.6337 29.4824 37.6759 29.5468 37.7044 29.6176C37.733 29.6885 37.7474 29.7644 37.7468 29.841V52.8069C37.7468 56.8039 35.6022 59.0732 31.8767 59.0732C30.7317 59.0732 29.8246 59.0732 27.3057 57.811L22.0785 54.7853C21.4464 54.4107 20.9219 53.8743 20.5572 53.2296C20.1926 52.5848 20.0004 51.8542 20 51.1105L20 27.8358C19.9987 27.0918 20.19 26.3604 20.5549 25.7154C20.9198 25.0703 21.4452 24.5343 22.0785 24.1611L41.9259 12.5237C42.5655 12.1692 43.2824 11.9834 44.011 11.9834C44.7396 11.9834 45.4565 12.1692 46.0962 12.5237L65.9127 24.1611C66.5502 24.5357 67.0791 25.075 67.4456 25.7242C67.8122 26.3735 68.0034 27.1096 68 27.8582V51.1329C67.9983 51.8763 67.8056 52.6064 67.441 53.2509C67.0765 53.8954 66.5527 54.432 65.9215 54.8076L46.105 66.445C45.4697 66.8155 44.75 67.0099 44.0176 67.009V67.009L44.0088 67Z" fill="black"/>
</g>
<path d="M30.8453 136.588C-38.6584 263.681 -89.665 -254.397 25.2958 -94.4479C140.257 65.5009 109.613 -129.791 151.405 -97.477C167.55 -84.9937 175.756 -63.6448 179.039 -38.8174C187.093 22.0894 60.3235 82.6849 30.8453 136.588V136.588Z" fill="url(#paint2_linear_154_261)"/>
<g clip-path="url(#clip2_154_261)">
<path fill-rule="evenodd" clip-rule="evenodd" d="M31.6678 35.1211H61.4964V26.8014H51.9933C50.9957 26.8014 49.6072 26.3063 48.9498 25.7012C48.2923 25.096 47.8924 24.0042 47.8924 23.0902V14.2331H23.7463C23.6635 14.2331 23.5992 14.2712 23.5578 14.3092C23.4888 14.3516 23.4704 14.4066 23.4704 14.487V59.5342C23.4704 59.5934 23.5118 59.6696 23.5532 59.7077C23.5946 59.7669 23.6819 59.7839 23.7417 59.7839C34.2148 59.7839 50.4486 59.7839 61.2159 59.7839C61.2987 59.7839 61.2941 59.7458 61.34 59.7077C61.4044 59.6696 61.4918 59.5892 61.4918 59.5342V54.8115H31.6678C29.7644 54.8115 28.1921 53.3727 28.1921 51.6123V38.3161C28.1921 36.5599 29.7552 35.1211 31.6678 35.1211ZM33.5941 46.5215L36.8675 46.3311C36.9365 46.8177 37.0836 47.1901 37.2997 47.444C37.6537 47.8587 38.1594 48.0661 38.8215 48.0661C39.3134 48.0661 39.6904 47.9603 39.9571 47.7487C40.2237 47.5371 40.357 47.2917 40.357 47.0081C40.357 46.7415 40.2329 46.5046 39.9801 46.293C39.7272 46.0814 39.1433 45.8867 38.2192 45.6963C36.7066 45.3874 35.6354 44.9684 34.9872 44.4522C34.3389 43.9359 34.0125 43.2757 34.0125 42.4717C34.0125 41.9469 34.178 41.4476 34.509 40.9821C34.84 40.5124 35.3412 40.1442 36.0078 39.8776C36.6744 39.611 37.5894 39.4756 38.7479 39.4756C40.1731 39.4756 41.2582 39.721 42.0075 40.2077C42.7569 40.6943 43.1983 41.473 43.3408 42.5394L40.0996 42.7171C40.0122 42.2516 39.8329 41.9131 39.5571 41.7015C39.2812 41.4899 38.8996 41.3841 38.4123 41.3841C38.0123 41.3841 37.7089 41.4645 37.5066 41.6169C37.3043 41.7734 37.2032 41.9639 37.2032 42.1882C37.2032 42.349 37.2859 42.4971 37.4514 42.6283C37.6077 42.7637 37.9939 42.8906 38.6008 43.0049C40.1088 43.3053 41.1846 43.6058 41.8328 43.9147C42.4857 44.2194 42.9592 44.6003 43.2535 45.0531C43.5477 45.5059 43.6994 46.0094 43.6994 46.5723C43.6994 47.2282 43.5017 47.8376 43.1064 48.3919C42.711 48.9463 42.1593 49.3695 41.4467 49.6572C40.7386 49.945 39.8467 50.0889 38.7663 50.0889C36.8721 50.0889 35.5573 49.7503 34.8263 49.0817C34.1044 48.4131 33.6907 47.5583 33.5941 46.5215ZM55.115 48.4131C55.5426 48.6882 55.823 48.8617 55.9564 48.9336C56.1495 49.0352 56.4207 49.1579 56.7517 49.2933L55.8001 51.0706C55.3219 50.8548 54.8438 50.6009 54.3702 50.3047C53.8967 50.0085 53.5657 49.7842 53.3818 49.6361C52.6232 49.9408 51.6669 50.0931 50.5221 50.0931C48.8256 50.0931 47.4878 49.6868 46.5085 48.8743C45.3499 47.9137 44.7706 46.5638 44.7706 44.8245C44.7706 43.1361 45.2764 41.8242 46.2878 40.8848C47.2993 39.9495 48.7107 39.4798 50.5313 39.4798C52.3841 39.4798 53.8093 39.9368 54.8162 40.8509C55.823 41.765 56.3288 43.0726 56.3288 44.7738C56.3288 46.293 55.9242 47.5033 55.115 48.4131ZM52.4715 46.7839C52.7473 46.3311 52.8852 45.654 52.8852 44.7568C52.8852 43.7201 52.6738 42.9837 52.2554 42.5394C51.8324 42.0993 51.2577 41.875 50.5221 41.875C49.8325 41.875 49.2762 42.1035 48.8532 42.5521C48.4257 43.0049 48.2142 43.7116 48.2142 44.6722C48.2142 45.7936 48.4211 46.5807 48.8394 47.0293C49.2578 47.4821 49.8279 47.7064 50.5543 47.7064C50.7888 47.7064 51.0095 47.6852 51.2163 47.6429C50.9267 47.3848 50.467 47.1436 49.8417 46.915L50.3796 45.7767C50.6876 45.8275 50.9267 45.891 51.0922 45.9671C51.2623 46.0391 51.5979 46.238 52.0899 46.5553C52.2094 46.6315 52.3335 46.7077 52.4715 46.7839ZM57.9517 39.6533H61.3952V47.3932H66.7835V49.9154H57.9517V39.6533ZM64.9583 35.1211H69.5236C71.4362 35.1211 72.9993 36.5641 72.9993 38.3203V51.6165C72.9993 53.3727 71.4316 54.8158 69.5236 54.8158H64.9583V60.5498C64.9583 61.2311 64.6594 61.8363 64.1767 62.2848C63.6894 62.7334 63.0319 63.0042 62.2917 63.0042C48.7567 63.0042 36.2745 63.0042 22.6705 63.0042C21.9303 63.0042 21.2728 62.7334 20.7855 62.2848C20.2981 61.8363 20.0039 61.2311 20.0039 60.5498V13.4756C20.0039 12.7943 20.3027 12.1891 20.7855 11.7406C21.2728 11.292 21.9486 11.0212 22.6705 11.0212H49.667C49.7268 11 49.7911 11 49.8555 11C50.1497 11 50.4486 11.1185 50.66 11.292H50.7014C50.7428 11.3132 50.7658 11.3301 50.8072 11.3682L64.5951 24.2158C64.8295 24.4316 64.9997 24.7236 64.9997 25.0537C64.9997 25.151 64.9767 25.2272 64.9583 25.3288V35.1211V35.1211ZM51.0416 22.8363V14.7832L60.8941 23.9661H52.2692C51.929 23.9661 51.6347 23.8307 51.4002 23.6361C51.1888 23.4414 51.0416 23.1494 51.0416 22.8363Z" fill="url(#paint3_radial_154_261)"/>
</g>
</g>
</g>
<defs>
<filter id="filter0_d_154_261" x="0" y="0" width="88" height="88" filterUnits="userSpaceOnUse" color-interpolation-filters="sRGB">
<feFlood flood-opacity="0" result="BackgroundImageFix"/>
<feColorMatrix in="SourceAlpha" type="matrix" values="0 0 0 0 0 0 0 0 0 0 0 0 0 0 0 0 0 0 127 0" result="hardAlpha"/>
<feOffset dy="4"/>
<feGaussianBlur stdDeviation="2"/>
<feComposite in2="hardAlpha" operator="out"/>
<feColorMatrix type="matrix" values="0 0 0 0 0 0 0 0 0 0 0 0 0 0 0 0 0 0 0.25 0"/>
<feBlend mode="normal" in2="BackgroundImageFix" result="effect1_dropShadow_154_261"/>
<feBlend mode="normal" in="SourceGraphic" in2="effect1_dropShadow_154_261" result="shape"/>
</filter>
<radialGradient id="paint0_radial_154_261" cx="0" cy="0" r="1" gradientUnits="userSpaceOnUse" gradientTransform="translate(23.027 232.479) rotate(-116.519) scale(129.413 606.141)">
<stop stop-color="#325379"/>
<stop offset="1" stop-color="#D9DFE6"/>
</radialGradient>
<linearGradient id="paint1_linear_154_261" x1="41.9384" y1="113.233" x2="184.291" y2="36.5608" gradientUnits="userSpaceOnUse">
<stop stop-color="#CFD7E0"/>
<stop offset="0.435415" stop-color="#5B7694"/>
<stop offset="1" stop-color="#8A9DB3" stop-opacity="0"/>
</linearGradient>
<linearGradient id="paint2_linear_154_261" x1="41.9384" y1="113.233" x2="184.291" y2="36.5608" gradientUnits="userSpaceOnUse">
<stop stop-color="#CFD7E0"/>
<stop offset="0.435415" stop-color="#5B7694"/>
<stop offset="1" stop-color="#8A9DB3" stop-opacity="0"/>
</linearGradient>
<radialGradient id="paint3_radial_154_261" cx="0" cy="0" r="1" gradientUnits="userSpaceOnUse" gradientTransform="translate(46.5016 37.0021) rotate(90) scale(26.0021 26.4977)">
<stop offset="0.104167" stop-color="#DC9092"/>
<stop offset="0.994792" stop-color="#7D3647"/>
</radialGradient>
<clipPath id="clip0_154_261">
<path d="M44 80C21.9086 80 4 62.0914 4 40V40C4 17.9086 21.9086 0 44 0V0C66.0914 0 84 17.9086 84 40V40C84 62.0914 66.0914 80 44 80V80Z" fill="white"/>
</clipPath>
<clipPath id="clip1_154_261">
<rect width="48" height="55" fill="white" transform="translate(20 12)"/>
</clipPath>
<clipPath id="clip2_154_261">
<rect width="53" height="52" fill="white" transform="translate(20 11)"/>
</clipPath>
</defs>
</svg>
