<?xml version="1.0" standalone="no"?><svg xmlns="http://www.w3.org/2000/svg" viewBox="0 0 1440 320"><path fill="#26547C" fill-opacity="1" d="M0,160L34.3,133.3C68.6,107,137,53,206,58.7C274.3,64,343,128,411,170.7C480,213,549,235,617,245.3C685.7,256,754,256,823,234.7C891.4,213,960,171,1029,138.7C1097.1,107,1166,85,1234,80C1302.9,75,1371,85,1406,90.7L1440,96L1440,0L1405.7,0C1371.4,0,1303,0,1234,0C1165.7,0,1097,0,1029,0C960,0,891,0,823,0C754.3,0,686,0,617,0C548.6,0,480,0,411,0C342.9,0,274,0,206,0C137.1,0,69,0,34,0L0,0Z"></path></svg>