<svg width="30" height="30" viewBox="0 0 30 30" fill="none" xmlns="http://www.w3.org/2000/svg">
<path d="M26.25 5.625H16.875V3.75C16.875 3.25272 16.6775 2.77581 16.3258 2.42417C15.9742 2.07254 15.4973 1.875 15 1.875H3.75C3.25272 1.875 2.77581 2.07254 2.42417 2.42417C2.07254 2.77581 1.875 3.25272 1.875 3.75V22.5C1.875 22.9973 2.07254 23.4742 2.42417 23.8258C2.77581 24.1775 3.25272 24.375 3.75 24.375H13.125V26.25C13.125 26.7473 13.3225 27.2242 13.6742 27.5758C14.0258 27.9275 14.5027 28.125 15 28.125H26.25C26.7473 28.125 27.2242 27.9275 27.5758 27.5758C27.9275 27.2242 28.125 26.7473 28.125 26.25V7.5C28.125 7.00272 27.9275 6.52581 27.5758 6.17417C27.2242 5.82254 26.7473 5.625 26.25 5.625V5.625ZM3.75 14.0625H9.53438L7.11563 16.4906L8.4375 17.8125L13.125 13.125L8.4375 8.4375L7.11563 9.75937L9.53438 12.1875H3.75V3.75H15V22.5H3.75V14.0625ZM15 26.25V24.375C15.4973 24.375 15.9742 24.1775 16.3258 23.8258C16.6775 23.4742 16.875 22.9973 16.875 22.5V7.5H26.25V15.9375H20.4656L22.8844 13.5094L21.5625 12.1875L16.875 16.875L21.5625 21.5625L22.8844 20.2406L20.4656 17.8125H26.25V26.25H15Z" fill="url(#paint0_radial_195_248)"/>
<defs>
<radialGradient id="paint0_radial_195_248" cx="0" cy="0" r="1" gradientUnits="userSpaceOnUse" gradientTransform="translate(15 15) rotate(90) scale(13.125)">
<stop stop-color="#FF4500"/>
<stop offset="1" stop-color="#A2433D"/>
</radialGradient>
</defs>
</svg>
