<svg width="30" height="30" viewBox="0 0 30 30" fill="none" xmlns="http://www.w3.org/2000/svg">
<path d="M10.5902 29.9606C10.8832 30.1164 11.1924 29.7791 11.013 29.4998C10.0391 27.9842 9.11697 25.4338 10.5862 22.1492C13.0363 16.6719 14.5272 13.8351 14.5272 13.8351C14.5272 13.8351 15.3202 17.1457 17.4698 20.0892C19.5387 22.9222 20.6711 26.4852 18.8455 29.4534C18.6741 29.732 18.9763 30.0607 19.2674 29.9117C21.5272 28.7557 24.0618 26.4369 24.3478 21.8226C24.4532 20.4126 24.2951 18.4386 23.5044 15.9476C22.4876 12.7904 21.2377 11.3172 20.5145 10.6846C20.2982 10.4953 19.9618 10.663 19.9795 10.9499C20.1903 14.3565 18.9087 15.2209 18.1792 13.2728C17.8879 12.4946 17.718 11.1487 17.718 9.50971C17.718 6.78102 16.9263 3.9721 15.181 1.68954C14.7271 1.09597 14.196 0.541307 13.5867 0.068316C13.3661 -0.102959 13.0464 0.0691983 13.0666 0.347728C13.2006 2.19754 13.0792 7.49897 8.42815 13.8325C4.21103 19.7076 5.84515 24.2196 6.42501 25.4417C7.53364 27.7828 9.08001 29.1576 10.5902 29.9606Z" fill="url(#paint0_radial_195_245)"/>
<defs>
<radialGradient id="paint0_radial_195_245" cx="0" cy="0" r="1" gradientUnits="userSpaceOnUse" gradientTransform="translate(15.001 15) rotate(90) scale(15 9.37598)">
<stop stop-color="#FF4500"/>
<stop offset="1" stop-color="#A2433D"/>
</radialGradient>
</defs>
</svg>
