<svg width="30" height="30" viewBox="0 0 30 30" fill="none" xmlns="http://www.w3.org/2000/svg">
<path d="M0 15.0029C0 15.5739 0.462833 16.0367 1.03386 16.0367H20.7253L16.8844 19.8716C16.4817 20.2744 16.4817 20.9295 16.8844 21.3323C17.0827 21.5306 17.3472 21.6328 17.6117 21.6328C17.8762 21.6328 18.1407 21.5306 18.339 21.3323L23.9351 15.7362C24.3378 15.3335 24.3378 14.6783 23.9351 14.2756L18.339 8.67949C17.9363 8.27676 17.2811 8.27676 16.8784 8.67949C16.4757 9.08221 16.4757 9.73739 16.8784 10.1401L20.7133 13.975H1.03386C0.462833 13.975 0 14.4318 0 15.0029Z" fill="url(#paint0_radial_195_233)"/>
<path d="M23.8274 29.7054C27.2355 29.7054 30.0005 26.9344 30.0005 23.5262V6.47356C30.0005 3.06542 27.2295 0.294434 23.8274 0.294434H6.77467C3.36654 0.294434 0.601562 3.06542 0.601562 6.47356V9.97786C0.601562 10.5489 1.0644 11.0057 1.62941 11.0057C2.20044 11.0057 2.66327 10.5429 2.66327 9.97786V6.47356C2.66327 4.20748 4.5086 2.35614 6.77467 2.35614H23.8274C26.0935 2.35614 27.9388 4.20147 27.9388 6.47356V23.5262C27.9388 25.7923 26.0935 27.6437 23.8274 27.6437H6.77467C4.5086 27.6437 2.66327 25.7983 2.66327 23.5262V20.064C2.66327 19.493 2.20044 19.0302 1.62941 19.0302C1.05838 19.0302 0.601562 19.493 0.601562 20.064V23.5262C0.601562 26.9344 3.37255 29.7054 6.77467 29.7054H23.8274V29.7054Z" fill="url(#paint1_radial_195_233)"/>
<defs>
<radialGradient id="paint0_radial_195_233" cx="0" cy="0" r="1" gradientUnits="userSpaceOnUse" gradientTransform="translate(12.1186 15.0051) rotate(90) scale(6.62768 12.1186)">
<stop stop-color="#FF4500"/>
<stop offset="1" stop-color="#A2433D"/>
</radialGradient>
<radialGradient id="paint1_radial_195_233" cx="0" cy="0" r="1" gradientUnits="userSpaceOnUse" gradientTransform="translate(15.301 14.9999) rotate(90) scale(14.7055 14.6995)">
<stop stop-color="#FF4500"/>
<stop offset="1" stop-color="#A2433D"/>
</radialGradient>
</defs>
</svg>
